<svg width="424" height="378" viewBox="0 0 424 378" fill="none" xmlns="http://www.w3.org/2000/svg">
<path d="M139.224 124.992C181.298 119.956 195.968 78.7588 198 57.5C198 95.4771 230.944 114.935 255.312 122.458C259.324 122.81 263.552 123.789 268 125.5C264.271 124.887 259.947 123.888 255.312 122.458C221.798 119.512 203.359 160.28 198 183.5C198 136.532 162.925 125.08 139.224 124.992C136.438 125.325 133.531 125.5 130.5 125.5C133.136 125.168 136.08 124.98 139.224 124.992Z" fill="#675696"/>
<path d="M198 57.5C195.833 80.1667 179.3 125.5 130.5 125.5C153 122.667 198 130.3 198 183.5C204 157.5 226.4 109.5 268 125.5C244.667 121.667 198 102.7 198 57.5Z" stroke="#675696"/>
<path d="M69.7243 245.492C111.798 240.456 126.468 199.259 128.5 178C128.5 215.977 161.444 235.435 185.812 242.958C189.824 243.31 194.052 244.289 198.5 246C194.771 245.387 190.447 244.388 185.812 242.958C152.298 240.012 133.859 280.78 128.5 304C128.5 257.032 93.4247 245.58 69.7243 245.492C66.9378 245.825 64.0312 246 61 246C63.6355 245.668 66.5798 245.48 69.7243 245.492Z" fill="#675696"/>
<path d="M128.5 178C126.333 200.667 109.8 246 61 246C83.5 243.167 128.5 250.8 128.5 304C134.5 278 156.9 230 198.5 246C175.167 242.167 128.5 223.2 128.5 178Z" stroke="#675696"/>
<path d="M241 300.5C261.647 295.767 269.655 287.115 276 259C276.977 284.649 280.498 296.45 306 300.5C284.05 305.307 278.248 314.732 276 340C272.165 319.544 265.958 310.129 241 300.5Z" fill="#675696" stroke="#675696"/>
<path d="M229 215.784C234.718 214.44 236.935 211.983 238.692 204C238.963 211.283 239.938 214.634 247 215.784C240.922 217.149 239.315 219.825 238.692 227C237.63 221.191 235.912 218.518 229 215.784Z" fill="#B2ABC4" stroke="#B2ABC4"/>
<path d="M86 120.784C91.7177 119.44 93.9352 116.983 95.6923 109C95.9628 116.283 96.938 119.634 104 120.784C97.9217 122.149 96.3148 124.825 95.6923 132C94.6302 126.191 92.9116 123.518 86 120.784Z" fill="#B2ABC4" stroke="#B2ABC4"/>
<path d="M262 58.4938C271.847 56.1567 275.666 51.8839 278.692 38C279.158 50.6663 280.838 56.4938 293 58.4938C282.532 60.8675 279.764 65.5218 278.692 78C276.863 67.8982 273.903 63.2488 262 58.4938Z" fill="#B2ABC4" stroke="#B2ABC4"/>
<path d="M331 125.494C340.847 123.157 344.666 118.884 347.692 105C348.158 117.666 349.838 123.494 362 125.494C351.532 127.867 348.764 132.522 347.692 145C345.863 134.898 342.903 130.249 331 125.494Z" fill="#B2ABC4" stroke="#B2ABC4"/>
</svg>
