<?xml version="1.0" encoding="UTF-8"?>
<svg id="New" xmlns="http://www.w3.org/2000/svg" viewBox="0 0 190.06 119.46">
    <defs>
        <style>
            .cls-1{fill:#ee265e;}
            .cls-2{fill:#ede821;}.cls-3{fill:#6ac7b7;}
            .cls-3,
            .cls-4{stroke-width:2px;}
            .cls-3,.cls-4,.cls-5{stroke:#012731;stroke-miterlimit:10;}
            .cls-4{fill:#f8b61e;}.cls-5{fill:#e5e5e5;}
        </style>
    </defs>
    <path class="cls-3" d="M76.51,103.63h-19.26l6.73-30.15c0-3.98-8.87-13,1.03-13.1l4.56,.06c9.94-.16,.24,9.05,.24,12.88l6.7,30.31Z"/>
    <path class="cls-3" d="M106.13,103.63h-19.26l6.73-30.15c0-3.98-8.87-13,1.03-13.1l4.56,.06c9.94-.16,.24,9.05,.24,12.88l6.7,30.31Z"/>
    <path class="cls-3" d="M135.76,103.63h-19.26l6.73-30.15c0-3.98-8.87-13,1.03-13.1l4.56,.06c9.94-.16,.24,9.05,.24,12.88l6.7,30.31Z"/>
    <rect class="cls-4" x="17.04" y="14.65" width="154.7" height="46.58" rx="3.53" ry="3.53"/>
    <rect class="cls-5" x="28.31" y="23.81" width="131.94" height="27.78" rx="2.48" ry="2.48"/>
    <circle class="cls-2" cx="22.84" cy="20.19" r="2.58"/>
    <circle class="cls-2" cx="22.84" cy="28.92" r="2.58"/>
    <circle class="cls-2" cx="22.84" cy="37.65" r="2.58"/>
    <circle class="cls-2" cx="22.84" cy="46.38" r="2.58"/>
    <circle class="cls-2" cx="22.84" cy="55.1" r="2.58"/>
    <circle class="cls-2" cx="165.77" cy="20.17" r="2.58"/>
    <circle class="cls-2" cx="165.77" cy="28.9" r="2.58"/>
    <circle class="cls-2" cx="165.77" cy="37.62" r="2.58"/>
    <circle class="cls-2" cx="165.77" cy="46.35" r="2.58"/>
    <circle class="cls-2" cx="165.77" cy="55.08" r="2.58"/>
    <g>
        <path class="cls-1" d="M37.54,45.6v-14.61c0-.18,.17-.33,.38-.33h4.06c2.94,0,4.37,1.21,4.37,3.69v.52c0,1.37-.44,2.33-1.33,2.92,1.08,.59,1.6,1.63,1.6,3.16v1.19c0,2.44-1.59,3.79-4.47,3.79h-4.23c-.21,0-.38-.15-.38-.33Zm5.36-11.02c0-.98-.36-1.18-.99-1.18h-.91v3.21h.67c.76,0,1.23-.2,1.23-1.22v-.81Zm.27,6.22c0-1.24-.42-1.45-1.35-1.45h-.82v3.84h1.16c.55,0,1.01-.08,1.01-1.11v-1.27Z"/>
        <path class="cls-1" d="M51.86,45.6v-14.61c0-.18,.17-.33,.38-.33h7.34c.21,0,.38,.15,.38,.33v2.09c0,.18-.17,.33-.38,.33h-4.26v3.42h3.31c.21,0,.38,.15,.38,.33v2.09c0,.18-.17,.33-.38,.33h-3.31v3.63h4.26c.21,0,.38,.15,.38,.33v2.09c0,.18-.17,.33-.38,.33h-7.34c-.21,0-.38-.15-.38-.33Z"/>
        <path class="cls-1" d="M65.19,45.6v-14.61c0-.18,.17-.33,.38-.33h7.34c.21,0,.38,.15,.38,.33v2.09c0,.18-.17,.33-.38,.33h-4.26v3.42h3.31c.21,0,.38,.15,.38,.33v2.09c0,.18-.17,.33-.38,.33h-3.31v3.63h4.26c.21,0,.38,.15,.38,.33v2.09c0,.18-.17,.33-.38,.33h-7.34c-.21,0-.38-.15-.38-.33Z"/>
        <path class="cls-1" d="M87.26,34.6v1.9c0,2.58-1.52,3.94-4.39,3.94h-.89v5.16c0,.18-.17,.33-.38,.33h-2.69c-.21,0-.38-.15-.38-.33v-14.61c0-.18,.17-.33,.38-.33h3.96c2.87,0,4.39,1.36,4.39,3.94Zm-5.28,3.1h.89c.61,0,.94-.17,.94-1.05v-2.19c0-.88-.33-1.05-.94-1.05h-.89v4.29Z"/>
        <path class="cls-1" d="M99.48,45.6v-14.61c0-.18,.17-.33,.38-.33h4.06c2.94,0,4.37,1.21,4.37,3.69v.52c0,1.37-.44,2.33-1.33,2.92,1.08,.59,1.6,1.63,1.6,3.16v1.19c0,2.44-1.59,3.79-4.47,3.79h-4.23c-.21,0-.38-.15-.38-.33Zm5.36-11.02c0-.98-.36-1.18-.99-1.18h-.91v3.21h.67c.76,0,1.23-.2,1.23-1.22v-.81Zm.27,6.22c0-1.24-.42-1.45-1.35-1.45h-.82v3.84h1.16c.55,0,1.01-.08,1.01-1.11v-1.27Z"/>
        <path class="cls-1" d="M118.26,46.09c-2.84,0-4.47-1.46-4.47-4v-7.6c0-2.54,1.63-4,4.47-4s4.47,1.46,4.47,4v7.6c0,2.54-1.63,4-4.47,4Zm-1.01-3.85c0,.98,.49,1.11,1.01,1.11s1.01-.13,1.01-1.11v-7.89c0-.98-.49-1.11-1.01-1.11s-1.01,.13-1.01,1.11v7.89Z"/>
        <path class="cls-1" d="M132.42,46.09c-2.84,0-4.47-1.46-4.47-4v-7.6c0-2.54,1.63-4,4.47-4s4.47,1.46,4.47,4v7.6c0,2.54-1.63,4-4.47,4Zm-1.01-3.85c0,.98,.49,1.11,1.01,1.11s1.01-.13,1.01-1.11v-7.89c0-.98-.49-1.11-1.01-1.11s-1.01,.13-1.01,1.11v7.89Z"/>
        <path class="cls-1" d="M150.85,34.6v1.9c0,2.58-1.52,3.94-4.39,3.94h-.89v5.16c0,.18-.17,.33-.38,.33h-2.69c-.21,0-.38-.15-.38-.33v-14.61c0-.18,.17-.33,.38-.33h3.96c2.87,0,4.39,1.36,4.39,3.94Zm-5.28,3.1h.89c.61,0,.94-.17,.94-1.05v-2.19c0-.88-.33-1.05-.94-1.05h-.89v4.29Z"/>
    </g>
</svg>