<?xml version="1.0" encoding="UTF-8"?>
<svg id="New" xmlns="http://www.w3.org/2000/svg" viewBox="0 0 726.02 577.75">
  <defs>
    <style>
      .cls-1{fill:#012731;}.cls-2{fill:#1e4484;}.cls-3{fill:#4164af;}.cls-4{fill:#779ad0;}
    </style>
  </defs>
  <g id="button">
    <g>
      <circle class="cls-3" cx="62.71" cy="232.85" r="34.32"/>
      <path class="cls-2" d="M62.7,268.17c-16.31,0-31-11.38-34.53-27.96-4.06-19.04,8.13-37.84,27.18-41.9,19.05-4.06,37.84,8.14,41.9,27.18,4.06,19.04-8.13,37.84-27.18,41.9-2.47,.53-4.94,.78-7.37,.78Zm.01-68.64c-2.29,0-4.62,.24-6.95,.74-17.97,3.83-29.47,21.56-25.64,39.53,3.83,17.97,21.56,29.47,39.53,25.64,17.97-3.83,29.47-21.56,25.64-39.53h0c-3.33-15.63-17.19-26.38-32.58-26.38Z"/>
    </g>
    <path class="cls-2" d="M90.12,221.45s-7.38,45.72-47.74,26.06l1.97,10.48s40.59,20.54,49.91-24.33l-4.15-12.21Z"/>
    <ellipse class="cls-4" cx="51.11" cy="216.24" rx="14.78" ry="7.52" transform="translate(-110.54 63.79) rotate(-33.38)"/>
  </g>
  </svg>