<?xml version="1.0" encoding="UTF-8"?><svg id="New" xmlns="http://www.w3.org/2000/svg" viewBox="0 0 193.07 108.6"><defs><style>.cls-1{fill:#ee265e;}.cls-2{fill:#ede821;}.cls-3{fill:#6ac7b7;}.cls-3,.cls-4{stroke-width:2px;}.cls-3,.cls-4,.cls-5{stroke:#012731;stroke-miterlimit:10;}.cls-4{fill:#f8b61e;}.cls-5{fill:#e5e5e5;}</style></defs><path class="cls-3" d="M74.77,96.24h-19.26l6.73-30.15c0-3.98-8.87-13,1.03-13.1l4.56,.06c9.94-.16,.24,9.05,.24,12.88l6.7,30.31Z"/><path class="cls-3" d="M104.39,96.24h-19.26l6.73-30.15c0-3.98-8.87-13,1.03-13.1l4.56,.06c9.94-.16,.24,9.05,.24,12.88l6.7,30.31Z"/><path class="cls-3" d="M134.02,96.24h-19.26l6.73-30.15c0-3.98-8.87-13,1.03-13.1l4.56,.06c9.94-.16,.24,9.05,.24,12.88l6.7,30.31Z"/><rect class="cls-4" x="15.3" y="7.26" width="154.7" height="46.58" rx="3.53" ry="3.53"/><rect class="cls-5" x="26.57" y="16.42" width="131.94" height="27.78" rx="2.48" ry="2.48"/><circle class="cls-2" cx="21.1" cy="12.81" r="2.58"/><circle class="cls-2" cx="21.1" cy="21.53" r="2.58"/><circle class="cls-2" cx="21.1" cy="30.26" r="2.58"/><circle class="cls-2" cx="21.1" cy="38.99" r="2.58"/><circle class="cls-2" cx="21.1" cy="47.71" r="2.58"/><circle class="cls-2" cx="164.03" cy="12.78" r="2.58"/><circle class="cls-2" cx="164.03" cy="21.51" r="2.58"/><circle class="cls-2" cx="164.03" cy="30.24" r="2.58"/><circle class="cls-2" cx="164.03" cy="38.96" r="2.58"/><circle class="cls-2" cx="164.03" cy="47.69" r="2.58"/><g><path class="cls-1" d="M31.22,33.88v-6.43c0-2.15,1.36-3.38,3.72-3.38s3.72,1.23,3.72,3.39v1.2c0,.15-.14,.28-.32,.28h-2.15c-.18,0-.32-.12-.32-.28v-1.33c0-.83-.41-.94-.86-.94s-.86,.11-.86,.94v6.68c0,.81,.41,.92,.86,.92s.86-.11,.86-.92v-2h-.71c-.18,0-.32-.12-.32-.28v-1.77c0-.15,.14-.28,.32-.28h3.19c.18,0,.32,.12,.32,.28v3.92c0,2.15-1.36,3.39-3.72,3.39s-3.72-1.23-3.72-3.39Z"/><path class="cls-1" d="M42.33,36.85v-12.37c0-.15,.15-.28,.32-.28h6.21c.18,0,.32,.12,.32,.28v1.77c0,.15-.15,.28-.32,.28h-3.61v2.89h2.8c.18,0,.32,.12,.32,.28v1.77c0,.15-.14,.28-.32,.28h-2.8v3.07h3.61c.18,0,.32,.12,.32,.28v1.77c0,.15-.15,.28-.32,.28h-6.21c-.18,0-.32-.12-.32-.28Z"/><path class="cls-1" d="M60.72,24.48v12.37c0,.15-.14,.28-.32,.28h-2.34c-.15,0-.27-.08-.31-.2l-2.2-6.95v6.88c0,.15-.14,.28-.32,.28h-2.05c-.18,0-.32-.12-.32-.28v-12.37c0-.15,.15-.28,.32-.28h2.86c.15,0,.27,.08,.31,.2l1.7,5.39v-5.32c0-.15,.14-.28,.32-.28h2.03c.18,0,.32,.12,.32,.28Z"/><path class="cls-1" d="M64.39,36.85v-12.37c0-.15,.14-.28,.32-.28h6.21c.18,0,.32,.12,.32,.28v1.77c0,.15-.15,.28-.32,.28h-3.61v2.89h2.8c.18,0,.32,.12,.32,.28v1.77c0,.15-.14,.28-.32,.28h-2.8v3.07h3.61c.18,0,.32,.12,.32,.28v1.77c0,.15-.15,.28-.32,.28h-6.21c-.18,0-.32-.12-.32-.28Z"/><path class="cls-1" d="M82.61,36.74c.04,.08,.03,.18-.03,.26-.06,.08-.16,.12-.27,.12h-2.32c-.14,0-.26-.08-.31-.19v-.02c-.15-.36-.22-.6-.22-1.59v-1.94c0-1.09-.41-1.3-1.17-1.3h-.46v4.76c0,.15-.15,.28-.32,.28h-2.28c-.18,0-.32-.12-.32-.28v-12.37c0-.15,.14-.28,.32-.28h3.44c2.49,0,3.7,1.02,3.7,3.12v.97c0,1.17-.38,2-1.17,2.5,1.05,.64,1.19,1.79,1.19,2.64v1.91c0,.57,.02,.98,.22,1.39Zm-4.78-10.22v3.25h.57c.64,0,1.04-.17,1.04-1.03v-1.22c0-.83-.31-1-.84-1h-.77Z"/><path class="cls-1" d="M88.71,37.12h-2.09c-.09,0-.18-.04-.25-.1s-.09-.14-.07-.22l2.32-12.37c.03-.13,.16-.23,.32-.23h3.33c.16,0,.29,.1,.32,.23l2.32,12.37c.01,.08-.01,.16-.07,.22s-.15,.1-.25,.1h-2.3c-.16,0-.3-.1-.32-.24l-.35-2.01h-2.24l-.35,2.01c-.02,.13-.16,.24-.32,.24Zm2.5-4.47l-.72-4.11-.72,4.11h1.44Z"/><path class="cls-1" d="M105.94,26.52h-2.06v10.32c0,.15-.14,.28-.32,.28h-2.28c-.18,0-.32-.12-.32-.28v-10.32h-2.06c-.18,0-.32-.12-.32-.28v-1.77c0-.15,.15-.28,.32-.28h7.04c.18,0,.32,.12,.32,.28v1.77c0,.15-.14,.28-.32,.28Z"/><path class="cls-1" d="M109.93,36.85v-12.37c0-.15,.15-.28,.32-.28h2.28c.18,0,.32,.12,.32,.28v12.37c0,.15-.15,.28-.32,.28h-2.28c-.18,0-.32-.12-.32-.28Z"/><path class="cls-1" d="M124.4,24.48v12.37c0,.15-.14,.28-.32,.28h-2.34c-.15,0-.27-.08-.31-.2l-2.2-6.95v6.88c0,.15-.14,.28-.32,.28h-2.05c-.18,0-.32-.12-.32-.28v-12.37c0-.15,.15-.28,.32-.28h2.86c.15,0,.27,.08,.31,.2l1.7,5.39v-5.32c0-.15,.14-.28,.32-.28h2.03c.18,0,.32,.12,.32,.28Z"/><path class="cls-1" d="M128.07,33.88v-6.43c0-2.15,1.35-3.38,3.72-3.38s3.72,1.23,3.72,3.39v1.2c0,.15-.14,.28-.32,.28h-2.15c-.18,0-.32-.12-.32-.28v-1.33c0-.83-.41-.94-.86-.94s-.86,.11-.86,.94v6.68c0,.81,.41,.92,.86,.92s.86-.11,.86-.92v-2h-.71c-.18,0-.32-.12-.32-.28v-1.77c0-.15,.14-.28,.32-.28h3.19c.18,0,.32,.12,.32,.28v3.92c0,2.15-1.36,3.39-3.72,3.39s-3.72-1.23-3.72-3.39Z"/><path class="cls-1" d="M142.03,35.19v1.87c0,.15-.14,.28-.32,.28h-2.19c-.18,0-.32-.12-.32-.28v-1.87c0-.15,.14-.28,.32-.28h2.19c.18,0,.32,.12,.32,.28Z"/><path class="cls-1" d="M148.53,35.19v1.87c0,.15-.14,.28-.32,.28h-2.19c-.18,0-.32-.12-.32-.28v-1.87c0-.15,.15-.28,.32-.28h2.19c.18,0,.32,.12,.32,.28Z"/><path class="cls-1" d="M155.04,35.19v1.87c0,.15-.14,.28-.32,.28h-2.19c-.18,0-.32-.12-.32-.28v-1.87c0-.15,.15-.28,.32-.28h2.19c.18,0,.32,.12,.32,.28Z"/></g></svg>