<?xml version="1.0" encoding="UTF-8"?>
<svg id="New" xmlns="http://www.w3.org/2000/svg" viewBox="0 0 726.02 577.75">
  <defs>
    <style>
      .cls-1{fill:#012731;}.cls-2{fill:#9fd18b;}.cls-3{fill:#6bbf6b;}.cls-4{fill:#50b848;}
    </style>
  </defs>
  <g id="button">
    <g>
      <circle class="cls-3" cx="485.56" cy="511.2" r="36.04"/>
      <path class="cls-1" d="M485.49,548.25c-7.98,0-15.71-2.57-22.2-7.45-7.91-5.95-13.02-14.62-14.4-24.42-2.85-20.23,11.28-39,31.5-41.86,20.23-2.85,39,11.28,41.86,31.5h0c1.38,9.8-1.13,19.55-7.08,27.45-5.95,7.91-14.62,13.02-24.42,14.4-1.76,.25-3.51,.37-5.25,.37Zm.1-72.1c-1.62,0-3.27,.11-4.92,.35-9.27,1.31-17.47,6.15-23.1,13.63-5.63,7.48-8.01,16.7-6.7,25.97,2.7,19.13,20.46,32.51,39.6,29.8,19.13-2.7,32.5-20.46,29.8-39.6-2.47-17.48-17.51-30.15-34.68-30.15Z"/>
    </g>
    <path class="cls-4" d="M515.12,501.26s-11.08,47.36-51.93,23.81l1.3,11.12s41.02,24.5,54.08-21.84l-3.45-13.1Z"/>
    <ellipse class="cls-2" cx="474.62" cy="492.95" rx="15.53" ry="7.9" transform="translate(-180.8 296.26) rotate(-29.38)"/>
  </g>
</svg>