<?xml version="1.0" encoding="UTF-8"?>
<svg id="New" xmlns="http://www.w3.org/2000/svg" viewBox="0 0 726.02 577.75">
  <defs>
    <style>
      .cls-1{fill:#012731;}.cls-2{fill:#9a2589;}.cls-3{fill:#b155a0;}.cls-4{fill:#d26fac;}
    </style>
  </defs>
  <g id="button">
    <g>
      <circle class="cls-3" cx="438.46" cy="106.59" r="28.64"/>
      <path class="cls-1" d="M438.45,136.23c-13.69,0-26.02-9.55-28.99-23.47-3.41-15.99,6.83-31.76,22.81-35.17,7.74-1.65,15.67-.19,22.31,4.12,6.64,4.31,11.21,10.95,12.86,18.69h0c1.65,7.74,.19,15.67-4.12,22.31-4.31,6.64-10.95,11.21-18.69,12.86-2.07,.44-4.14,.65-6.18,.65Zm.01-57.29c-1.9,0-3.83,.2-5.77,.61-14.91,3.18-24.45,17.89-21.27,32.8,3.18,14.91,17.89,24.46,32.8,21.27,7.22-1.54,13.41-5.8,17.43-11.99,4.02-6.19,5.38-13.58,3.84-20.8-2.76-12.97-14.27-21.88-27.03-21.88Z"/>
    </g>
    <path class="cls-2" d="M461.34,97.07s-6.16,38.16-39.85,21.75l1.65,8.75s33.88,17.15,41.66-20.31l-3.46-10.19Z"/>
    <ellipse class="cls-4" cx="428.77" cy="92.73" rx="12.34" ry="6.28" transform="translate(19.71 251.2) rotate(-33.38)"/>
  </g>
  </svg>