<svg xmlns="http://www.w3.org/2000/svg" width="846" height="1202" viewBox="0 0 846 1202" fill="none">
<g clip-path="url(#clip0_108_9650)">
<rect width="1194" height="834" transform="translate(11.1265 1201.55) rotate(-90)" fill="#311976"/>
<g filter="url(#filter0_f_108_9650)">
<ellipse cx="425" cy="619.5" rx="230" ry="214.5" transform="rotate(-180 425 619.5)" fill="#623FC5"/>
</g>
<path d="M295.613 704.4V709.52H298.613C299.306 709.52 299.773 709.347 300.013 709C300.253 708.627 300.373 708.173 300.373 707.64V706.28C300.373 705.747 300.253 705.307 300.013 704.96C299.773 704.587 299.306 704.4 298.613 704.4H295.613ZM294.173 726H288.013C287.506 726 287.133 725.893 286.893 725.68C286.679 725.44 286.573 725.067 286.573 724.56V698.64C286.573 698.133 286.679 697.773 286.893 697.56C287.133 697.32 287.506 697.2 288.013 697.2H301.333C304.319 697.2 306.373 697.827 307.493 699.08C308.639 700.307 309.213 701.907 309.213 703.88V705.72C309.213 706.84 309.039 707.8 308.693 708.6C308.373 709.373 307.799 709.933 306.973 710.28C308.413 710.44 309.573 711.027 310.453 712.04C311.359 713.053 311.813 714.4 311.813 716.08V724.56C311.813 725.067 311.693 725.44 311.453 725.68C311.239 725.893 310.879 726 310.373 726H304.173C303.666 726 303.293 725.893 303.053 725.68C302.839 725.44 302.733 725.067 302.733 724.56V718.44C302.733 717.853 302.613 717.427 302.373 717.16C302.159 716.867 301.773 716.72 301.213 716.72H295.613V724.56C295.613 725.067 295.493 725.44 295.253 725.68C295.039 725.893 294.679 726 294.173 726ZM340.504 718.44C340.504 719.667 340.317 720.787 339.944 721.8C339.597 722.787 338.957 723.64 338.024 724.36C337.117 725.053 335.85 725.6 334.224 726C332.624 726.4 330.584 726.6 328.104 726.6C325.624 726.6 323.57 726.4 321.944 726C320.317 725.6 319.037 725.053 318.104 724.36C317.197 723.64 316.557 722.787 316.184 721.8C315.837 720.787 315.664 719.667 315.664 718.44V704.8C315.664 703.573 315.837 702.467 316.184 701.48C316.557 700.467 317.197 699.6 318.104 698.88C319.037 698.16 320.317 697.6 321.944 697.2C323.57 696.8 325.624 696.6 328.104 696.6C330.584 696.6 332.624 696.8 334.224 697.2C335.85 697.6 337.117 698.16 338.024 698.88C338.957 699.6 339.597 700.467 339.944 701.48C340.317 702.467 340.504 703.573 340.504 704.8V718.44ZM324.744 717C324.744 717.533 324.944 717.987 325.344 718.36C325.744 718.707 326.664 718.88 328.104 718.88C329.544 718.88 330.464 718.707 330.864 718.36C331.264 717.987 331.464 717.533 331.464 717V706.24C331.464 705.733 331.264 705.307 330.864 704.96C330.464 704.587 329.544 704.4 328.104 704.4C326.664 704.4 325.744 704.587 325.344 704.96C324.944 705.307 324.744 705.733 324.744 706.24V717ZM359.001 726H352.521C352.014 726 351.641 725.893 351.401 725.68C351.187 725.44 351.081 725.067 351.081 724.56V704.92H345.201C344.694 704.92 344.321 704.813 344.081 704.6C343.867 704.36 343.761 703.987 343.761 703.48V698.64C343.761 698.133 343.867 697.773 344.081 697.56C344.321 697.32 344.694 697.2 345.201 697.2H366.321C366.827 697.2 367.187 697.32 367.401 697.56C367.641 697.773 367.761 698.133 367.761 698.64V703.48C367.761 703.987 367.641 704.36 367.401 704.6C367.187 704.813 366.827 704.92 366.321 704.92H360.441V724.56C360.441 725.067 360.321 725.44 360.081 725.68C359.867 725.893 359.507 726 359.001 726ZM380.489 705.6L378.609 711.68H384.889L383.009 705.6C382.902 705.36 382.782 705.187 382.649 705.08C382.542 704.973 382.409 704.92 382.249 704.92H381.249C381.089 704.92 380.942 704.973 380.809 705.08C380.702 705.187 380.596 705.36 380.489 705.6ZM378.209 724.56C378.209 725.067 378.089 725.44 377.849 725.68C377.636 725.893 377.276 726 376.769 726H370.889C370.382 726 370.009 725.893 369.769 725.68C369.556 725.44 369.449 725.067 369.449 724.56V714C369.449 713.2 369.569 712.28 369.809 711.24C370.076 710.2 370.476 708.987 371.009 707.6L374.489 698.52C374.649 698.067 374.889 697.733 375.209 697.52C375.556 697.307 375.996 697.2 376.529 697.2H387.289C387.796 697.2 388.209 697.307 388.529 697.52C388.876 697.733 389.129 698.067 389.289 698.52L392.769 707.6C393.302 708.987 393.689 710.2 393.929 711.24C394.196 712.28 394.329 713.2 394.329 714V724.56C394.329 725.067 394.209 725.44 393.969 725.68C393.756 725.893 393.396 726 392.889 726H386.849C386.316 726 385.916 725.893 385.649 725.68C385.409 725.44 385.289 725.067 385.289 724.56V718.96H378.209V724.56ZM411.266 726H404.786C404.28 726 403.906 725.893 403.666 725.68C403.453 725.44 403.346 725.067 403.346 724.56V704.92H397.466C396.96 704.92 396.586 704.813 396.346 704.6C396.133 704.36 396.026 703.987 396.026 703.48V698.64C396.026 698.133 396.133 697.773 396.346 697.56C396.586 697.32 396.96 697.2 397.466 697.2H418.586C419.093 697.2 419.453 697.32 419.666 697.56C419.906 697.773 420.026 698.133 420.026 698.64V703.48C420.026 703.987 419.906 704.36 419.666 704.6C419.453 704.813 419.093 704.92 418.586 704.92H412.706V724.56C412.706 725.067 412.586 725.44 412.346 725.68C412.133 725.893 411.773 726 411.266 726ZM443.916 726H425.356C424.85 726 424.476 725.893 424.236 725.68C424.023 725.44 423.916 725.067 423.916 724.56V698.64C423.916 698.133 424.023 697.773 424.236 697.56C424.476 697.32 424.85 697.2 425.356 697.2H443.916C444.423 697.2 444.783 697.32 444.996 697.56C445.236 697.773 445.356 698.133 445.356 698.64V703.32C445.356 703.827 445.236 704.2 444.996 704.44C444.783 704.653 444.423 704.76 443.916 704.76H432.876V707.84H440.676C441.183 707.84 441.543 707.96 441.756 708.2C441.996 708.413 442.116 708.773 442.116 709.28V713.56C442.116 714.067 441.996 714.44 441.756 714.68C441.543 714.893 441.183 715 440.676 715H432.876V718.44H443.916C444.423 718.44 444.783 718.56 444.996 718.8C445.236 719.013 445.356 719.373 445.356 719.88V724.56C445.356 725.067 445.236 725.44 444.996 725.68C444.783 725.893 444.423 726 443.916 726ZM473.282 726H466.802C466.295 726 465.922 725.893 465.682 725.68C465.469 725.44 465.362 725.067 465.362 724.56V719.44L459.242 711.24C458.629 710.413 458.215 709.693 458.002 709.08C457.815 708.467 457.722 707.547 457.722 706.32V698.64C457.722 698.133 457.829 697.773 458.042 697.56C458.282 697.32 458.655 697.2 459.162 697.2H465.322C465.829 697.2 466.189 697.32 466.402 697.56C466.642 697.773 466.762 698.133 466.762 698.64V705.2C466.762 705.467 466.775 705.747 466.802 706.04C466.829 706.333 466.935 706.613 467.122 706.88L468.962 709.76C469.095 710 469.229 710.173 469.362 710.28C469.522 710.387 469.709 710.44 469.922 710.44H470.322C470.535 710.44 470.709 710.387 470.842 710.28C471.002 710.173 471.149 710 471.282 709.76L473.122 706.88C473.309 706.613 473.415 706.333 473.442 706.04C473.469 705.747 473.482 705.467 473.482 705.2V698.64C473.482 698.133 473.589 697.773 473.802 697.56C474.042 697.32 474.415 697.2 474.922 697.2H480.882C481.389 697.2 481.749 697.32 481.962 697.56C482.202 697.773 482.322 698.133 482.322 698.64V706.32C482.322 707.547 482.215 708.467 482.002 709.08C481.789 709.693 481.389 710.413 480.802 711.24L474.722 719.48V724.56C474.722 725.067 474.602 725.44 474.362 725.68C474.149 725.893 473.789 726 473.282 726ZM511.285 718.44C511.285 719.667 511.098 720.787 510.725 721.8C510.378 722.787 509.738 723.64 508.805 724.36C507.898 725.053 506.632 725.6 505.005 726C503.405 726.4 501.365 726.6 498.885 726.6C496.405 726.6 494.352 726.4 492.725 726C491.098 725.6 489.818 725.053 488.885 724.36C487.978 723.64 487.338 722.787 486.965 721.8C486.618 720.787 486.445 719.667 486.445 718.44V704.8C486.445 703.573 486.618 702.467 486.965 701.48C487.338 700.467 487.978 699.6 488.885 698.88C489.818 698.16 491.098 697.6 492.725 697.2C494.352 696.8 496.405 696.6 498.885 696.6C501.365 696.6 503.405 696.8 505.005 697.2C506.632 697.6 507.898 698.16 508.805 698.88C509.738 699.6 510.378 700.467 510.725 701.48C511.098 702.467 511.285 703.573 511.285 704.8V718.44ZM495.525 717C495.525 717.533 495.725 717.987 496.125 718.36C496.525 718.707 497.445 718.88 498.885 718.88C500.325 718.88 501.245 718.707 501.645 718.36C502.045 717.987 502.245 717.533 502.245 717V706.24C502.245 705.733 502.045 705.307 501.645 704.96C501.245 704.587 500.325 704.4 498.885 704.4C497.445 704.4 496.525 704.587 496.125 704.96C495.725 705.307 495.525 705.733 495.525 706.24V717ZM540.897 718.44C540.897 719.667 540.711 720.787 540.337 721.8C539.991 722.787 539.351 723.64 538.417 724.36C537.511 725.053 536.257 725.6 534.657 726C533.057 726.4 531.017 726.6 528.537 726.6C526.057 726.6 524.017 726.4 522.417 726C520.817 725.6 519.551 725.053 518.617 724.36C517.711 723.64 517.071 722.787 516.697 721.8C516.351 720.787 516.177 719.667 516.177 718.44V698.64C516.177 698.133 516.284 697.773 516.497 697.56C516.737 697.32 517.111 697.2 517.617 697.2H523.897C524.404 697.2 524.764 697.32 524.977 697.56C525.217 697.773 525.337 698.133 525.337 698.64V716.88C525.337 717.413 525.537 717.867 525.937 718.24C526.337 718.587 527.231 718.76 528.617 718.76C530.031 718.76 530.937 718.587 531.337 718.24C531.737 717.867 531.937 717.413 531.937 716.88V698.64C531.937 698.133 532.044 697.773 532.257 697.56C532.497 697.32 532.871 697.2 533.377 697.2H539.457C539.964 697.2 540.324 697.32 540.537 697.56C540.777 697.773 540.897 698.133 540.897 698.64V718.44ZM555.261 704.4V709.52H558.261C558.954 709.52 559.421 709.347 559.661 709C559.901 708.627 560.021 708.173 560.021 707.64V706.28C560.021 705.747 559.901 705.307 559.661 704.96C559.421 704.587 558.954 704.4 558.261 704.4H555.261ZM553.821 726H547.661C547.154 726 546.781 725.893 546.541 725.68C546.328 725.44 546.221 725.067 546.221 724.56V698.64C546.221 698.133 546.328 697.773 546.541 697.56C546.781 697.32 547.154 697.2 547.661 697.2H560.981C563.968 697.2 566.021 697.827 567.141 699.08C568.288 700.307 568.861 701.907 568.861 703.88V705.72C568.861 706.84 568.688 707.8 568.341 708.6C568.021 709.373 567.448 709.933 566.621 710.28C568.061 710.44 569.221 711.027 570.101 712.04C571.008 713.053 571.461 714.4 571.461 716.08V724.56C571.461 725.067 571.341 725.44 571.101 725.68C570.888 725.893 570.528 726 570.021 726H563.821C563.314 726 562.941 725.893 562.701 725.68C562.488 725.44 562.381 725.067 562.381 724.56V718.44C562.381 717.853 562.261 717.427 562.021 717.16C561.808 716.867 561.421 716.72 560.861 716.72H555.261V724.56C555.261 725.067 555.141 725.44 554.901 725.68C554.688 725.893 554.328 726 553.821 726ZM262.179 774H249.539C249.032 774 248.659 773.893 248.419 773.68C248.205 773.44 248.099 773.067 248.099 772.56V767.88C248.099 767.373 248.205 767.013 248.419 766.8C248.659 766.56 249.032 766.44 249.539 766.44H260.299C260.645 766.44 260.899 766.333 261.059 766.12C261.245 765.88 261.339 765.6 261.339 765.28C261.339 764.827 261.245 764.493 261.059 764.28C260.899 764.067 260.645 763.947 260.299 763.92L254.299 763.08C252.432 762.813 250.925 762.2 249.779 761.24C248.659 760.28 248.099 758.68 248.099 756.44V752.24C248.099 749.973 248.832 748.24 250.299 747.04C251.765 745.813 253.792 745.2 256.379 745.2H267.579C268.085 745.2 268.445 745.32 268.659 745.56C268.899 745.773 269.019 746.133 269.019 746.64V751.4C269.019 751.907 268.899 752.28 268.659 752.52C268.445 752.733 268.085 752.84 267.579 752.84H258.259C257.912 752.84 257.645 752.96 257.459 753.2C257.272 753.413 257.179 753.693 257.179 754.04C257.179 754.387 257.272 754.68 257.459 754.92C257.645 755.16 257.912 755.293 258.259 755.32L264.219 756.12C266.085 756.387 267.592 757 268.739 757.96C269.885 758.92 270.459 760.52 270.459 762.76V766.96C270.459 769.227 269.712 770.973 268.219 772.2C266.752 773.4 264.739 774 262.179 774ZM293.994 774H284.234C280.901 774 278.421 773.333 276.794 772C275.194 770.667 274.394 768.613 274.394 765.84V753.4C274.394 750.627 275.194 748.573 276.794 747.24C278.421 745.88 280.901 745.2 284.234 745.2H293.994C294.501 745.2 294.861 745.32 295.074 745.56C295.314 745.773 295.434 746.133 295.434 746.64V751.48C295.434 751.987 295.314 752.36 295.074 752.6C294.861 752.813 294.501 752.92 293.994 752.92H285.954C285.128 752.92 284.514 753.093 284.114 753.44C283.714 753.76 283.514 754.253 283.514 754.92V764.44C283.514 765.107 283.714 765.6 284.114 765.92C284.514 766.213 285.128 766.36 285.954 766.36H293.994C294.501 766.36 294.861 766.48 295.074 766.72C295.314 766.933 295.434 767.293 295.434 767.8V772.56C295.434 773.067 295.314 773.44 295.074 773.68C294.861 773.893 294.501 774 293.994 774ZM308.991 752.4V757.52H311.991C312.685 757.52 313.151 757.347 313.391 757C313.631 756.627 313.751 756.173 313.751 755.64V754.28C313.751 753.747 313.631 753.307 313.391 752.96C313.151 752.587 312.685 752.4 311.991 752.4H308.991ZM307.551 774H301.391C300.885 774 300.511 773.893 300.271 773.68C300.058 773.44 299.951 773.067 299.951 772.56V746.64C299.951 746.133 300.058 745.773 300.271 745.56C300.511 745.32 300.885 745.2 301.391 745.2H314.711C317.698 745.2 319.751 745.827 320.871 747.08C322.018 748.307 322.591 749.907 322.591 751.88V753.72C322.591 754.84 322.418 755.8 322.071 756.6C321.751 757.373 321.178 757.933 320.351 758.28C321.791 758.44 322.951 759.027 323.831 760.04C324.738 761.053 325.191 762.4 325.191 764.08V772.56C325.191 773.067 325.071 773.44 324.831 773.68C324.618 773.893 324.258 774 323.751 774H317.551C317.045 774 316.671 773.893 316.431 773.68C316.218 773.44 316.111 773.067 316.111 772.56V766.44C316.111 765.853 315.991 765.427 315.751 765.16C315.538 764.867 315.151 764.72 314.591 764.72H308.991V772.56C308.991 773.067 308.871 773.44 308.631 773.68C308.418 773.893 308.058 774 307.551 774ZM349.678 774H331.118C330.611 774 330.238 773.893 329.998 773.68C329.785 773.44 329.678 773.067 329.678 772.56V746.64C329.678 746.133 329.785 745.773 329.998 745.56C330.238 745.32 330.611 745.2 331.118 745.2H349.678C350.185 745.2 350.545 745.32 350.758 745.56C350.998 745.773 351.118 746.133 351.118 746.64V751.32C351.118 751.827 350.998 752.2 350.758 752.44C350.545 752.653 350.185 752.76 349.678 752.76H338.638V755.84H346.438C346.945 755.84 347.305 755.96 347.518 756.2C347.758 756.413 347.878 756.773 347.878 757.28V761.56C347.878 762.067 347.758 762.44 347.518 762.68C347.305 762.893 346.945 763 346.438 763H338.638V766.44H349.678C350.185 766.44 350.545 766.56 350.758 766.8C350.998 767.013 351.118 767.373 351.118 767.88V772.56C351.118 773.067 350.998 773.44 350.758 773.68C350.545 773.893 350.185 774 349.678 774ZM375.85 774H357.29C356.783 774 356.41 773.893 356.17 773.68C355.957 773.44 355.85 773.067 355.85 772.56V746.64C355.85 746.133 355.957 745.773 356.17 745.56C356.41 745.32 356.783 745.2 357.29 745.2H375.85C376.357 745.2 376.717 745.32 376.93 745.56C377.17 745.773 377.29 746.133 377.29 746.64V751.32C377.29 751.827 377.17 752.2 376.93 752.44C376.717 752.653 376.357 752.76 375.85 752.76H364.81V755.84H372.61C373.117 755.84 373.477 755.96 373.69 756.2C373.93 756.413 374.05 756.773 374.05 757.28V761.56C374.05 762.067 373.93 762.44 373.69 762.68C373.477 762.893 373.117 763 372.61 763H364.81V766.44H375.85C376.357 766.44 376.717 766.56 376.93 766.8C377.17 767.013 377.29 767.373 377.29 767.88V772.56C377.29 773.067 377.17 773.44 376.93 773.68C376.717 773.893 376.357 774 375.85 774ZM389.462 774H383.462C382.955 774 382.582 773.893 382.342 773.68C382.128 773.44 382.022 773.067 382.022 772.56V746.64C382.022 746.133 382.128 745.773 382.342 745.56C382.582 745.32 382.955 745.2 383.462 745.2H387.622C388.128 745.2 388.555 745.28 388.902 745.44C389.275 745.6 389.635 745.88 389.982 746.28L397.742 755.16V746.64C397.742 746.133 397.848 745.773 398.062 745.56C398.302 745.32 398.675 745.2 399.182 745.2H405.182C405.688 745.2 406.048 745.32 406.262 745.56C406.502 745.773 406.622 746.133 406.622 746.64V772.56C406.622 773.067 406.502 773.44 406.262 773.68C406.048 773.893 405.688 774 405.182 774H399.182C398.675 774 398.302 773.893 398.062 773.68C397.848 773.44 397.742 773.067 397.742 772.56V767.64L390.902 759.36V772.56C390.902 773.067 390.782 773.44 390.542 773.68C390.328 773.893 389.968 774 389.462 774ZM434.333 774H427.853C427.346 774 426.973 773.893 426.733 773.68C426.519 773.44 426.413 773.067 426.413 772.56V752.92H420.533C420.026 752.92 419.653 752.813 419.413 752.6C419.199 752.36 419.093 751.987 419.093 751.48V746.64C419.093 746.133 419.199 745.773 419.413 745.56C419.653 745.32 420.026 745.2 420.533 745.2H441.653C442.159 745.2 442.519 745.32 442.733 745.56C442.973 745.773 443.093 746.133 443.093 746.64V751.48C443.093 751.987 442.973 752.36 442.733 752.6C442.519 752.813 442.159 752.92 441.653 752.92H435.773V772.56C435.773 773.067 435.653 773.44 435.413 773.68C435.199 773.893 434.839 774 434.333 774ZM471.187 766.44C471.187 767.667 471.001 768.787 470.627 769.8C470.281 770.787 469.641 771.64 468.707 772.36C467.801 773.053 466.534 773.6 464.907 774C463.307 774.4 461.267 774.6 458.787 774.6C456.307 774.6 454.254 774.4 452.627 774C451.001 773.6 449.721 773.053 448.787 772.36C447.881 771.64 447.241 770.787 446.867 769.8C446.521 768.787 446.347 767.667 446.347 766.44V752.8C446.347 751.573 446.521 750.467 446.867 749.48C447.241 748.467 447.881 747.6 448.787 746.88C449.721 746.16 451.001 745.6 452.627 745.2C454.254 744.8 456.307 744.6 458.787 744.6C461.267 744.6 463.307 744.8 464.907 745.2C466.534 745.6 467.801 746.16 468.707 746.88C469.641 747.6 470.281 748.467 470.627 749.48C471.001 750.467 471.187 751.573 471.187 752.8V766.44ZM455.427 765C455.427 765.533 455.627 765.987 456.027 766.36C456.427 766.707 457.347 766.88 458.787 766.88C460.227 766.88 461.147 766.707 461.547 766.36C461.947 765.987 462.147 765.533 462.147 765V754.24C462.147 753.733 461.947 753.307 461.547 752.96C461.147 752.587 460.227 752.4 458.787 752.4C457.347 752.4 456.427 752.587 456.027 752.96C455.627 753.307 455.427 753.733 455.427 754.24V765ZM492.904 774H486.704C486.197 774 485.824 773.893 485.584 773.68C485.371 773.44 485.264 773.067 485.264 772.56V746.64C485.264 746.133 485.371 745.773 485.584 745.56C485.824 745.32 486.197 745.2 486.704 745.2H498.944C502.571 745.2 505.051 745.92 506.384 747.36C507.717 748.8 508.384 750.68 508.384 753V758.12C508.384 760.44 507.717 762.32 506.384 763.76C505.051 765.2 502.571 765.92 498.944 765.92H494.344V772.56C494.344 773.067 494.224 773.44 493.984 773.68C493.771 773.893 493.411 774 492.904 774ZM494.264 752.68V758.72H497.864C498.637 758.72 499.144 758.52 499.384 758.12C499.624 757.72 499.744 757.267 499.744 756.76V754.64C499.744 754.133 499.624 753.68 499.384 753.28C499.144 752.88 498.637 752.68 497.864 752.68H494.264ZM534.33 774H513.97C513.463 774 513.09 773.893 512.85 773.68C512.636 773.44 512.53 773.067 512.53 772.56V746.64C512.53 746.133 512.636 745.773 512.85 745.56C513.09 745.32 513.463 745.2 513.97 745.2H520.17C520.676 745.2 521.036 745.32 521.25 745.56C521.49 745.773 521.61 746.133 521.61 746.64V766.44H527.09V759.96C527.09 759.453 527.196 759.093 527.41 758.88C527.65 758.64 528.023 758.52 528.53 758.52H534.33C534.836 758.52 535.196 758.64 535.41 758.88C535.65 759.093 535.77 759.453 535.77 759.96V772.56C535.77 773.067 535.65 773.44 535.41 773.68C535.196 773.893 534.836 774 534.33 774ZM550.782 753.6L548.902 759.68H555.182L553.302 753.6C553.195 753.36 553.075 753.187 552.942 753.08C552.835 752.973 552.702 752.92 552.542 752.92H551.542C551.382 752.92 551.235 752.973 551.102 753.08C550.995 753.187 550.889 753.36 550.782 753.6ZM548.502 772.56C548.502 773.067 548.382 773.44 548.142 773.68C547.929 773.893 547.569 774 547.062 774H541.182C540.675 774 540.302 773.893 540.062 773.68C539.849 773.44 539.742 773.067 539.742 772.56V762C539.742 761.2 539.862 760.28 540.102 759.24C540.369 758.2 540.769 756.987 541.302 755.6L544.782 746.52C544.942 746.067 545.182 745.733 545.502 745.52C545.849 745.307 546.289 745.2 546.822 745.2H557.582C558.089 745.2 558.502 745.307 558.822 745.52C559.169 745.733 559.422 746.067 559.582 746.52L563.062 755.6C563.595 756.987 563.982 758.2 564.222 759.24C564.489 760.28 564.622 761.2 564.622 762V772.56C564.622 773.067 564.502 773.44 564.262 773.68C564.049 773.893 563.689 774 563.182 774H557.142C556.609 774 556.209 773.893 555.942 773.68C555.702 773.44 555.582 773.067 555.582 772.56V766.96H548.502V772.56ZM583.145 774H576.665C576.158 774 575.785 773.893 575.545 773.68C575.332 773.44 575.225 773.067 575.225 772.56V767.44L569.105 759.24C568.492 758.413 568.078 757.693 567.865 757.08C567.678 756.467 567.585 755.547 567.585 754.32V746.64C567.585 746.133 567.692 745.773 567.905 745.56C568.145 745.32 568.518 745.2 569.025 745.2H575.185C575.692 745.2 576.052 745.32 576.265 745.56C576.505 745.773 576.625 746.133 576.625 746.64V753.2C576.625 753.467 576.638 753.747 576.665 754.04C576.692 754.333 576.798 754.613 576.985 754.88L578.825 757.76C578.958 758 579.092 758.173 579.225 758.28C579.385 758.387 579.572 758.44 579.785 758.44H580.185C580.398 758.44 580.572 758.387 580.705 758.28C580.865 758.173 581.012 758 581.145 757.76L582.985 754.88C583.172 754.613 583.278 754.333 583.305 754.04C583.332 753.747 583.345 753.467 583.345 753.2V746.64C583.345 746.133 583.452 745.773 583.665 745.56C583.905 745.32 584.278 745.2 584.785 745.2H590.745C591.252 745.2 591.612 745.32 591.825 745.56C592.065 745.773 592.185 746.133 592.185 746.64V754.32C592.185 755.547 592.078 756.467 591.865 757.08C591.652 757.693 591.252 758.413 590.665 759.24L584.585 767.48V772.56C584.585 773.067 584.465 773.44 584.225 773.68C584.012 773.893 583.652 774 583.145 774ZM605.588 763.52H599.388C598.882 763.52 598.508 763.413 598.268 763.2C598.055 762.96 597.935 762.587 597.908 762.08L597.308 746.64C597.282 746.133 597.375 745.773 597.588 745.56C597.802 745.32 598.162 745.2 598.668 745.2H606.308C606.815 745.2 607.175 745.32 607.388 745.56C607.602 745.773 607.695 746.133 607.668 746.64L607.108 762.08C607.082 762.587 606.948 762.96 606.708 763.2C606.468 763.413 606.095 763.52 605.588 763.52ZM606.188 774H598.828C598.322 774 597.948 773.893 597.708 773.68C597.495 773.44 597.388 773.067 597.388 772.56V767.32C597.388 766.813 597.495 766.453 597.708 766.24C597.948 766 598.322 765.88 598.828 765.88H606.188C606.695 765.88 607.055 766 607.268 766.24C607.508 766.453 607.628 766.813 607.628 767.32V772.56C607.628 773.067 607.508 773.44 607.268 773.68C607.055 773.893 606.695 774 606.188 774Z" fill="white"/>
<g clip-path="url(#clip1_108_9650)">
<path d="M788.88 1165.92L788.88 1198.53L518.24 1198.53L518.24 1167.91C518.71 1155.73 545.44 1132.78 553.99 1132.16L755.12 1132.16C761.66 1132.34 787.52 1152.67 788.88 1165.92Z" fill="#25B6A0"/>
<path d="M790.17 1175.74L790.17 1199.82L516.95 1199.82L516.95 1178.31C516.95 1152.15 538.23 1130.87 564.39 1130.87L745.3 1130.87C770.04 1130.87 790.17 1151 790.17 1175.74ZM787.59 1197.24L787.59 1175.74C787.59 1152.42 768.62 1133.46 745.31 1133.46L564.39 1133.46C539.66 1133.46 519.75 1156.39 519.53 1178.32L519.53 1197.24L787.58 1197.24L787.59 1197.24Z" fill="#012731"/>
<path d="M561.17 1132.82L561.17 1112.45C561.17 1102.68 572.72 1093.12 582.5 1093.12L725.5 1093.12C733.99 1093.12 743.54 1100.01 743.54 1108.5L743.54 1132.82L561.17 1132.82Z" fill="#25B6A0"/>
<path d="M744.83 1112.02L744.83 1133.16L559.88 1133.16L559.88 1115.03C559.88 1101.71 570.71 1090.88 584.03 1090.88L723.69 1090.88C735.35 1090.88 744.83 1100.36 744.83 1112.02ZM742.25 1130.58L742.25 1112.02C742.25 1101.79 733.92 1093.46 723.69 1093.46L584.03 1093.46C572.14 1093.46 562.46 1103.14 562.46 1115.03L562.46 1130.58L742.25 1130.58Z" fill="#012731"/>
<path d="M584.5 1093L584.5 1070.97C584.5 1065.32 592.3 1059.82 596.06 1059.41L702 1059.41C708.23 1059.41 713.29 1064.47 713.29 1070.7L713.29 1093L584.5 1093Z" fill="#25B6A0"/>
<path d="M715.29 1073.16L715.29 1093.47L583.91 1093.47L583.91 1073.51C583.91 1064.57 591.18 1057.3 600.12 1057.3L699.42 1057.3C708.17 1057.3 715.29 1064.42 715.29 1073.17L715.29 1073.16ZM712.71 1090.88L712.71 1073.16C712.71 1065.83 706.75 1059.88 699.43 1059.88L600.12 1059.88C592.6 1059.88 586.49 1066 586.49 1073.51L586.49 1090.89L712.7 1090.89L712.71 1090.88Z" fill="#012731"/>
<path d="M604 1058.73L604 1042.52C604 1036.14 609.18 1030.96 615.56 1030.96L678.75 1030.96C684.98 1030.96 690.04 1036.02 690.04 1042.25L690.04 1058.73L604 1058.73Z" fill="#25B6A0"/>
<path d="M691.33 1045.53L691.33 1060.02L602.7 1060.02L602.7 1045.88C602.7 1036.94 609.97 1029.67 618.91 1029.67L675.46 1029.67C684.21 1029.67 691.33 1036.79 691.33 1045.54L691.33 1045.53ZM688.75 1057.44L688.75 1045.53C688.75 1038.2 682.79 1032.25 675.47 1032.25L618.92 1032.25C611.4 1032.25 605.29 1038.37 605.29 1045.88L605.29 1057.44L688.75 1057.44Z" fill="#012731"/>
<path d="M562.95 1112.97L562.95 1129.71L741.89 1129.71L741.89 1112.97L562.95 1112.97Z" fill="#1B9984"/>
<path d="M587.04 1079.87L587.04 1090.03L712.38 1090.03L712.38 1079.87L587.04 1079.87Z" fill="#1B9984"/>
<path d="M583.298 1131.02L585.878 1131.02L585.924 1093.31L583.344 1093.31L583.298 1131.02Z" fill="#012731"/>
<path d="M596.982 1131.45L599.562 1131.46L599.663 1092.96L597.083 1092.95L596.982 1131.45Z" fill="#012731"/>
<path d="M610.428 1131.76L613.008 1131.77L613.19 1091.67L610.61 1091.66L610.428 1131.76Z" fill="#012731"/>
<path d="M624.24 1092.9L624.24 1131.04L626.82 1131.04L626.82 1092.9L624.24 1092.9Z" fill="#012731"/>
<path d="M637.87 1092.49L637.87 1130.63L640.45 1130.63L640.45 1092.49L637.87 1092.49Z" fill="#012731"/>
<path d="M651.51 1091.67L651.51 1130.63L654.09 1130.63L654.09 1091.67L651.51 1091.67Z" fill="#012731"/>
<path d="M665.039 1131.63L667.619 1131.64L667.707 1092.5L665.127 1092.49L665.039 1131.63Z" fill="#012731"/>
<path d="M678.77 1091.67L678.77 1131.33L681.35 1131.33L681.35 1091.67L678.77 1091.67Z" fill="#012731"/>
<path d="M690.516 1092.49L690.933 1130.99L693.513 1130.97L693.096 1092.46L690.516 1092.49Z" fill="#012731"/>
<path d="M704.56 1093.51L704.56 1132.21L707.14 1132.21L707.14 1093.51L704.56 1093.51Z" fill="#012731"/>
<path d="M718.19 1092.43L718.19 1130.57L720.77 1130.57L720.77 1092.43L718.19 1092.43Z" fill="#012731"/>
<path d="M730.71 1093.24L730.71 1131.38L733.29 1131.38L733.29 1093.24L730.71 1093.24Z" fill="#012731"/>
<path d="M571.21 1094.72L571.21 1130.97L573.79 1130.97L573.79 1094.72L571.21 1094.72Z" fill="#012731"/>
<path d="M545.78 1163.58L545.78 1169.38C545.78 1174.88 550.239 1179.34 555.74 1179.34L635.41 1179.34C640.911 1179.34 645.37 1174.88 645.37 1169.38L645.37 1163.58C645.37 1158.08 640.911 1153.62 635.41 1153.62L555.74 1153.62C550.239 1153.62 545.78 1158.08 545.78 1163.58Z" fill="#1B9984"/>
<path d="M646.66 1166.48C646.66 1174.28 640.31 1180.63 632.51 1180.63L558.63 1180.63C550.83 1180.63 544.48 1174.28 544.48 1166.48C544.48 1158.68 550.83 1152.33 558.63 1152.33L632.51 1152.33C640.31 1152.33 646.66 1158.68 646.66 1166.48ZM547.07 1166.48C547.07 1172.86 552.26 1178.05 558.64 1178.05L632.52 1178.05C638.9 1178.05 644.09 1172.86 644.09 1166.48C644.09 1160.1 638.9 1154.91 632.52 1154.91L558.63 1154.91C552.25 1154.91 547.06 1160.1 547.06 1166.48L547.07 1166.48Z" fill="#012731"/>
<path d="M661.61 1163.58L661.61 1169.38C661.61 1174.88 666.069 1179.34 671.57 1179.34L760.61 1179.34C766.111 1179.34 770.57 1174.88 770.57 1169.38L770.57 1163.58C770.57 1158.08 766.111 1153.62 760.61 1153.62L671.57 1153.62C666.069 1153.62 661.61 1158.08 661.61 1163.58Z" fill="#1B9984"/>
<path d="M771.86 1166.48C771.86 1174.28 765.51 1180.63 757.71 1180.63L674.47 1180.63C666.67 1180.63 660.32 1174.28 660.32 1166.48C660.32 1158.68 666.67 1152.33 674.47 1152.33L757.71 1152.33C765.51 1152.33 771.86 1158.68 771.86 1166.48ZM662.9 1166.48C662.9 1172.86 668.09 1178.05 674.47 1178.05L757.71 1178.05C764.09 1178.05 769.28 1172.86 769.28 1166.48C769.28 1160.1 764.09 1154.91 757.71 1154.91L674.47 1154.91C668.09 1154.91 662.9 1160.1 662.9 1166.48Z" fill="#012731"/>
<path d="M768.3 1166.24C768.3 1160.29 763.478 1155.47 757.53 1155.47C751.582 1155.47 746.76 1160.29 746.76 1166.24C746.76 1172.19 751.582 1177.01 757.53 1177.01C763.478 1177.01 768.3 1172.19 768.3 1166.24Z" fill="#25B6A0"/>
<path d="M769.59 1166.24C769.59 1172.89 764.18 1178.3 757.53 1178.3C750.88 1178.3 745.47 1172.89 745.47 1166.24C745.47 1159.59 750.88 1154.18 757.53 1154.18C764.18 1154.18 769.59 1159.59 769.59 1166.24ZM748.05 1166.24C748.05 1171.47 752.3 1175.72 757.53 1175.72C762.76 1175.72 767.01 1171.47 767.01 1166.24C767.01 1161.01 762.76 1156.76 757.53 1156.76C752.3 1156.76 748.05 1161.01 748.05 1166.24Z" fill="#012731"/>
<path d="M642.97 1166.76C642.97 1160.43 637.834 1155.29 631.5 1155.29C625.165 1155.29 620.03 1160.43 620.03 1166.76C620.03 1173.09 625.165 1178.23 631.5 1178.23C637.834 1178.23 642.97 1173.09 642.97 1166.76Z" fill="#25B6A0"/>
<path d="M644.27 1166.76C644.27 1173.8 638.54 1179.52 631.51 1179.52C624.48 1179.52 618.75 1173.79 618.75 1166.76C618.75 1159.73 624.48 1154 631.51 1154C638.54 1154 644.27 1159.73 644.27 1166.76ZM621.33 1166.76C621.33 1172.37 625.9 1176.94 631.51 1176.94C637.12 1176.94 641.69 1172.37 641.69 1166.76C641.69 1161.15 637.12 1156.58 631.51 1156.58C625.9 1156.58 621.33 1161.15 621.33 1166.76Z" fill="#012731"/>
</g>
<g clip-path="url(#clip2_108_9650)">
<path d="M67.0925 273.242C65.6391 270.919 124.711 277.445 132.845 308.445C133.661 311.551 137.92 317.424 139.789 324.488C141.431 330.694 148.995 332.065 151.624 332.893C156.84 334.539 194.329 352.392 192.103 355.879C190.623 358.202 135.057 402.219 132.772 402.48L80.0917 400.255C77.1194 400.617 74.2626 399.027 72.9928 396.312C67.7837 385.181 70.7855 364.191 71.61 362.405C80.2671 343.766 107.076 310.487 66.6211 296.943C67.6929 294.389 69.2128 289.833 69.081 283.997C68.9697 278.968 68.1005 275.659 67.0925 273.242Z" fill="#6BBF6B"/>
<path d="M132.826 403.979L132.709 403.979L80.1459 401.754C76.57 402.142 73.1699 400.215 71.6406 396.956C66.236 385.405 69.2888 363.881 70.263 361.783C71.6044 358.902 73.363 355.686 75.227 352.277C81.8595 340.16 90.1177 325.07 85.5375 313.394C82.9468 306.78 76.6036 301.864 66.1485 298.364L64.6217 297.85L65.2417 296.364C66.8706 292.49 67.6782 288.225 67.5806 284.029C67.4922 280.003 66.8923 276.695 65.7525 273.925L65.3174 273.206L65.8333 272.263C66.2015 271.712 67.0572 270.423 78.3461 272.308C86.479 273.673 127.387 281.786 134.28 308.055C134.561 309.136 135.421 310.789 136.421 312.709C138.037 315.822 140.061 319.705 141.224 324.098C142.464 328.771 147.983 330.316 150.948 331.139C151.379 331.253 151.751 331.366 152.069 331.466C156.212 332.768 191.493 349.059 193.532 354.687C193.782 355.389 193.718 356.094 193.357 356.675C192.087 358.671 166.566 378.825 163.651 381.116C134.986 403.723 133.488 403.894 132.927 403.953L132.807 403.967L132.826 403.979ZM80.0377 398.756L80.1595 398.765L132.515 400.975C136.994 398.602 185.372 360.575 190.548 355.395C187.521 351.149 156.603 336.038 151.184 334.328C150.899 334.244 150.553 334.137 150.164 334.034C146.872 333.116 140.032 331.203 138.353 324.878C137.273 320.797 135.339 317.081 133.787 314.093C132.665 311.932 131.778 310.236 131.412 308.821C129.179 300.306 122.672 292.919 112.076 286.85C95.5992 277.421 74.7734 274.343 69.0931 274.287C70.0133 277.061 70.5048 280.248 70.5901 283.96C70.6873 288.04 69.9959 292.188 68.5983 296.038C78.9378 299.773 85.5679 305.239 88.3337 312.297C93.4233 325.278 84.7889 341.039 77.8551 353.702C76.0182 357.059 74.2835 360.237 72.9794 363.026C72.3732 364.515 69.2968 384.861 74.3588 395.672C75.357 397.803 77.5847 399.049 79.9262 398.766L80.0462 398.751L80.0377 398.756Z" fill="#012731"/>
<path d="M79.154 303.605L77.3333 301.235C80.1371 299.07 85.0999 294.311 86.8321 286.727C87.5634 283.514 87.6356 280.197 87.0287 276.858L89.9695 276.328C90.6398 280.061 90.5691 283.786 89.7486 287.393C87.8126 295.895 82.2792 301.198 79.1677 303.608L79.154 303.605Z" fill="#012731"/>
<path d="M131.929 403.656L112.234 363.641L114.978 362.226L134.667 402.232L131.929 403.656Z" fill="#012731"/>
<path d="M78.5112 359.477C76.9677 359.476 75.8166 359.39 75.1576 359.287L75.6276 356.337C75.818 356.362 95.9116 358.211 118.102 344.797C136.281 333.813 133.377 314.903 130.021 304.613L132.863 303.687C136.484 314.821 139.592 335.303 119.651 347.355C102.687 357.604 85.9647 359.488 78.5112 359.477Z" fill="#012731"/>
<path d="M97.4985 284.418C97.4985 284.418 122.474 294.079 124.141 297.43C125.808 300.781 131.411 316.116 128.43 322.41C125.672 328.242 98.4182 284.528 97.4985 284.418Z" fill="#9FD18B"/>
<path d="M86.3203 310.208L85.5352 307.328C91.466 305.713 96.9568 303.042 101.864 299.369C106.446 295.952 110.353 291.786 113.491 286.986L115.988 288.619C112.663 293.707 108.511 298.126 103.65 301.76C98.4423 305.65 92.6109 308.491 86.3203 310.208Z" fill="#012731"/>
<path d="M85.7976 369.503C79.9237 369.494 74.4502 368.833 69.8559 367.617L70.6228 364.733C85.0804 368.569 108.805 366.665 124.32 355.587C134.045 348.634 139.403 339.007 140.251 326.99L143.229 327.197C142.318 340.152 136.536 350.528 126.052 358.022C114.736 366.113 99.2519 369.539 85.7942 369.516L85.7976 369.503Z" fill="#012731"/>
<path d="M87.6894 324.728C87.5145 324.729 87.3567 324.719 87.2126 324.713L87.4063 321.732C90.1887 321.906 100.826 319.509 110.623 312.502C118.044 307.189 122.675 300.995 124.006 294.601L126.936 295.212C125.447 302.367 120.409 309.183 112.368 314.94C102.44 322.039 91.7781 324.743 87.6946 324.737L87.6894 324.728Z" fill="#012731"/>
<path d="M84.0277 344.996C83.2559 344.995 82.5988 344.914 82.0528 344.765L82.8883 341.898C86.4684 342.945 101.532 338.149 111.94 330.701C122.648 323.036 130.359 307.892 130.914 305.218L133.844 305.829C133.198 308.932 125.419 324.736 113.68 333.131C104.829 339.461 90.6202 345.013 84.0191 345.001L84.0277 344.996Z" fill="#012731"/>
<path d="M73.4976 369.925C73.4976 369.925 70.8175 400.867 81.5443 397.365L128.136 399.535L111.484 366.457C111.484 366.457 92.6636 370.126 73.5062 369.919L73.4976 369.925Z" fill="#50B848"/>
<path d="M-41.8803 272.769C-41.5652 285.741 -32.4603 286.587 68.8085 297.08C69.8764 295.253 72.148 290.838 72.0754 284.791C71.999 278.641 69.5509 274.232 68.4238 272.448C-5.06946 268.131 -41.8111 264.041 -41.7821 260.189" fill="#6BBF6B"/>
<path d="M-40.3452 260.593C-36.4113 262.63 -16.0492 266.409 67.92 271.326L68.6954 271.371L69.0942 272.03C70.8375 274.774 72.9207 279.276 72.9977 285.156C73.0727 290.956 71.1411 295.469 69.5213 298.238L69.0325 299.072L68.0734 298.975C-69.2804 284.742 -37.3368 280.504 -43.8433 260.279M-39.4951 270.588C-39.1039 286.273 11.0425 290.009 67.3869 295.872C68.6906 293.411 70.0323 289.757 69.9812 285.194C69.9208 280.461 68.381 276.74 66.9528 274.285C-43.9364 267.771 -40.4971 264.145 -40.4831 261.272" fill="#012731"/>
<path d="M-9.54302 287.908L-11.8661 285.983C-10.5946 284.453 -7.68405 280.282 -8.16446 274.739C-8.35898 272.449 -9.09672 270.265 -10.3381 268.235L-7.77366 266.658C-6.27515 269.095 -5.39842 271.72 -5.16598 274.479C-4.5953 281.136 -8.03951 286.085 -9.55676 287.904L-9.54302 287.908Z" fill="#012731"/>
<path d="M16.8052 291.803L14.4207 289.951C15.4938 288.576 17.9448 284.824 17.6155 279.762C17.504 278.053 16.522 274.848 12.4917 269.351L13.6264 268.348L14.8422 267.46C18.5137 272.462 20.4286 276.493 20.6332 279.572C21.0284 285.669 18.0899 290.16 16.8104 291.812L16.8052 291.803Z" fill="#012731"/>
<path d="M43.6447 295.565L41.5283 293.421C42.7991 292.161 45.8085 288.655 46.1762 283.335C46.5861 277.429 43.4271 273.216 42.45 272.066L44.7505 270.112C46.248 271.87 49.6666 276.686 49.1903 283.544C48.753 289.888 45.1702 294.069 43.6533 295.56L43.6447 295.565Z" fill="#012731"/>
</g>
<path d="M-50.9746 805.695L95.4801 776.913C95.4801 776.913 121.442 769.949 152.948 810.332C162.791 822.944 171.03 839.806 180.334 849.871C184.937 854.841 193.232 851.56 193.218 844.79L192.499 629.654C192.471 622.774 183.817 619.756 179.532 625.141L149.823 661.703C137.81 676.488 120.143 685.252 101.162 686.705C86.674 687.813 66.7393 681.306 52.8321 679.922L-62.0894 660.415L-50.9608 805.695H-50.9746Z" fill="#B155A0"/>
<path d="M185.712 854.246C183.182 854.246 180.749 853.193 178.91 851.2C173.615 845.482 168.804 837.827 163.703 829.742C159.777 823.512 155.727 817.06 151.413 811.537C135.585 791.255 121.318 783.433 112.139 780.457C102.282 777.245 96.0471 778.796 95.9779 778.809L-52.7716 808.034L-64.2319 658.062L53.1917 677.97C58.362 678.482 64.3894 679.714 70.7762 681.015C81.3242 683.175 92.2316 685.39 101.051 684.725C119.714 683.3 136.953 674.453 148.344 660.443L178.053 623.881C180.514 620.78 184.55 619.617 188.297 620.918C192.043 622.22 194.476 625.639 194.49 629.626L195.209 844.749C195.209 848.708 192.942 852.072 189.251 853.526C188.089 853.982 186.9 854.204 185.739 854.204L185.712 854.246ZM100.416 774.462C109.816 774.462 130.635 778.546 154.496 809.128C158.934 814.804 163.04 821.338 167.021 827.651C172.012 835.584 176.74 843.087 181.785 848.542C183.652 850.563 186.112 850.577 187.799 849.912C189.486 849.248 191.283 847.559 191.269 844.79L190.55 629.668C190.55 626.885 188.698 625.265 186.983 624.656C185.269 624.047 182.808 624.186 181.08 626.359L151.358 662.935C139.289 677.776 121.055 687.148 101.328 688.643C91.9689 689.349 80.7989 687.065 69.9744 684.864C63.6844 683.576 57.7537 682.372 52.6526 681.86L-59.9464 662.769L-49.1773 803.341L95.1208 774.989C95.3697 774.919 97.2498 774.449 100.429 774.449L100.416 774.462Z" fill="#012731"/>
<path d="M-58.1904 664.472L-52.5916 740.683L-48.8728 802.33L36.7549 785.635L65.4127 684.989L-58.1904 664.472Z" fill="#9A2589"/>
<path d="M105.213 772.067C105.213 772.067 136.539 759.276 150.764 776.165C164.975 793.055 186.915 839.391 186.915 839.391C186.915 839.391 188.836 854.356 181.855 848.085C181.855 848.085 138.958 768.925 105.227 772.067H105.213Z" fill="#9A2589"/>
<path d="M182.988 629.46C182.988 629.46 146.948 687.481 111.24 692.88C111.24 692.88 141.999 690.166 180.32 714.587C180.32 714.587 185.339 641.255 182.975 629.46H182.988Z" fill="#D26FAC"/>
<path d="M836.535 53.269L662.205 55.2276C632.457 55.5588 608.52 79.7955 608.52 109.577V318.778C608.52 318.778 610.592 351.872 572.371 389.804C568.2 393.937 571.062 401.036 576.931 401.036H747.248C752.355 401.036 755.505 395.434 752.815 391.071C741.58 372.825 718.852 348.704 719.313 312.557V162.068C719.313 158.453 722.233 155.53 725.843 155.53H846.518C849.395 155.53 910.732 155.976 911.782 153.283C922.672 125.418 929.231 95.1037 913.739 55.5012C912.732 52.9378 849.539 54.0179 846.791 53.8595C842.649 53.6003 837.067 53.269 836.549 53.269H836.535Z" fill="#4164AF"/>
<path d="M747.248 402.462H576.931C573.637 402.462 570.818 400.576 569.58 397.537C568.315 394.47 569.005 391.114 571.364 388.767C608.607 351.814 607.111 319.182 607.096 318.85V109.576C607.096 79.1474 631.809 54.1186 662.205 53.7874L836.549 51.8289C836.823 51.8289 838.204 51.8865 846.892 52.4193C847.424 52.4481 850.992 52.4193 855.523 52.4049C913.954 52.0449 914.443 53.341 915.091 54.9827C931.202 96.198 923.678 126.829 913.134 153.816C912.573 155.271 911.797 157.272 847.755 156.97H846.532H725.858C723.053 156.97 720.765 159.26 720.765 162.068V312.543C720.406 341.373 734.92 362.312 746.601 379.147C749.334 383.078 751.909 386.794 754.066 390.293C755.606 392.785 755.663 395.794 754.239 398.358C752.815 400.921 750.211 402.448 747.277 402.448L747.248 402.462ZM836.549 54.709L662.233 56.6676C633.421 56.9988 609.973 80.7315 609.973 109.576V318.778C610.06 320.06 611.642 352.865 573.392 390.826C571.58 392.626 571.609 394.916 572.242 396.457C572.86 397.969 574.428 399.596 576.931 399.596H747.248C749.118 399.596 750.787 398.617 751.707 396.975C752.614 395.348 752.57 393.418 751.592 391.82C749.478 388.378 746.917 384.691 744.213 380.803C732.317 363.637 717.5 342.266 717.874 312.528V162.068C717.874 157.661 721.456 154.09 725.843 154.09H847.755C889.96 154.262 907.769 153.341 910.603 152.362C920.802 126.123 928.023 96.342 912.573 56.4803C907.812 54.9683 868.613 55.2131 855.537 55.2995C849.999 55.3283 847.309 55.3571 846.705 55.2995C838.448 54.7954 836.794 54.709 836.549 54.709Z" fill="#012731"/>
<path d="M684.674 140.582H641.951C636.843 140.582 632.702 144.728 632.702 149.842V309.332C632.702 314.446 636.843 318.591 641.951 318.591H684.674C689.783 318.591 693.924 314.446 693.924 309.332V149.842C693.924 144.728 689.783 140.582 684.674 140.582Z" fill="#285C9A"/>
<path d="M684.674 320.046H641.965C636.068 320.046 631.277 315.25 631.277 309.346V149.856C631.277 143.952 636.068 139.156 641.965 139.156H684.674C690.572 139.156 695.362 143.952 695.362 149.856V309.346C695.362 315.25 690.572 320.046 684.674 320.046ZM641.965 142.036C637.65 142.036 634.154 145.55 634.154 149.856V309.346C634.154 313.666 637.664 317.166 641.965 317.166H684.674C688.989 317.166 692.485 313.652 692.485 309.346V149.856C692.485 145.536 688.975 142.036 684.674 142.036H641.965Z" fill="#012731"/>
<path d="M570.487 394.887C570.487 394.887 585.059 446.961 602.896 400.561C603.342 399.38 606.564 400.532 606.967 401.728C610.132 410.987 622.387 436.995 637.477 400.561C638.053 399.179 640.066 399.337 640.671 400.705C644.756 409.936 654.94 437.629 667.196 401.584C667.398 401.008 669.44 399.078 669.642 399.654C672.461 407.79 683.365 439.4 694.297 400.374C694.47 399.769 696.599 398.703 696.671 399.308C697.951 409.115 711.804 440.178 722.175 399.812C722.276 399.409 723.873 398.43 724.002 398.819C726.75 406.61 742.17 441.82 753.577 395.017" fill="#779AD0"/>
<path d="M709.991 421.399C709.862 421.399 709.732 421.399 709.589 421.399C702.583 420.967 697.045 408.208 695.549 401.209C691.78 414.487 687.752 420.737 682.89 420.881C682.833 420.881 682.775 420.881 682.718 420.881C676.647 420.881 672.145 410.987 668.851 401.742C668.692 401.915 668.549 402.073 668.491 402.16C664.276 414.602 659.788 420.809 654.811 421.01C654.725 421.01 654.638 421.01 654.566 421.01C647.849 421.01 643.217 410.238 640.124 403.081C639.836 402.433 639.577 401.814 639.347 401.281C639.261 401.079 639.06 400.993 638.93 401.036C638.815 401.036 638.801 401.079 638.786 401.108C633.205 414.573 627.552 420.996 621.337 420.823C612.534 420.55 607.053 406.48 605.586 402.188C605.413 401.958 604.565 401.584 604.047 401.512C598.768 415.063 593.316 421.529 587.274 421.241C576.5 420.737 569.811 397.883 569.077 395.276L571.853 394.498C573.68 401.022 580.038 418.015 587.418 418.361C587.49 418.361 587.562 418.361 587.648 418.361C592.136 418.361 596.926 412.039 601.544 400.028C601.889 399.121 602.738 398.574 603.946 398.617C605.37 398.646 607.758 399.596 608.319 401.252C610.908 408.842 615.9 417.77 621.438 417.943C621.496 417.943 621.553 417.943 621.611 417.943C626.257 417.943 631.277 411.751 636.154 399.999C636.614 398.876 637.679 398.171 638.916 398.156C640.239 398.156 641.447 398.905 641.994 400.115C642.239 400.662 642.498 401.281 642.785 401.944C645.245 407.675 649.906 418.317 654.725 418.13C657.184 418.029 661.126 415.005 665.844 401.108C666.132 400.273 668.117 398.099 669.498 398.099C670.188 398.099 670.793 398.516 671.023 399.179C676.388 414.703 680.344 418.015 682.746 418.015C682.775 418.015 682.804 418.015 682.818 418.015C684.717 417.957 688.572 415.538 692.916 399.985C693.276 398.703 695.419 397.638 696.541 397.695C697.376 397.753 698.009 398.329 698.109 399.135C698.958 405.587 704.468 418.217 709.776 418.548C712.034 418.706 716.45 416.388 720.794 399.467C721.082 398.372 722.851 397.35 723.772 397.306C724.491 397.263 725.139 397.695 725.369 398.358C727.987 405.789 734.144 417.425 739.639 417.425C739.696 417.425 739.768 417.425 739.826 417.425C742.4 417.295 747.435 414.17 752.182 394.686L754.973 395.362C750.959 411.837 746.054 419.988 739.955 420.29C739.84 420.29 739.725 420.29 739.61 420.29C731.612 420.29 725.383 406.379 723.312 401.094C719.687 414.746 715.314 421.414 709.977 421.414L709.991 421.399Z" fill="#012731"/>
<path d="M617.928 131.624C617.928 131.624 605.226 65.2505 667.944 62.2119L673.885 62.5431C675.842 62.6583 676.316 65.3369 674.518 66.0858C660.996 71.8029 636.715 87.7879 627.595 130.472C622.776 153.053 617.928 133.885 617.928 131.61V131.624Z" fill="#779AD0"/>
<path d="M256.224 65.992C298.298 60.956 312.968 19.7588 315 -1.5C315 36.4771 347.944 55.935 372.312 63.458C376.324 63.81 380.552 64.789 385 66.5C381.271 65.887 376.947 64.888 372.312 63.458C338.798 60.512 320.359 101.28 315 124.5C315 77.532 279.925 66.08 256.224 65.992C253.438 66.325 250.531 66.5 247.5 66.5C250.136 66.168 253.08 65.98 256.224 65.992Z" fill="#675696"/>
<path d="M315 -1.5C312.833 21.1667 296.3 66.5 247.5 66.5C270 63.667 315 71.3 315 124.5C321 98.5 343.4 50.5 385 66.5C361.667 62.667 315 43.7 315 -1.5Z" stroke="#675696"/>
<path d="M186.724 186.492C228.798 181.456 243.468 140.259 245.5 119C245.5 156.977 278.444 176.435 302.812 183.958C306.824 184.31 311.052 185.289 315.5 187C311.771 186.387 307.447 185.388 302.812 183.958C269.298 181.012 250.859 221.78 245.5 245C245.5 198.032 210.425 186.58 186.724 186.492C183.938 186.825 181.031 187 178 187C180.635 186.668 183.58 186.48 186.724 186.492Z" fill="#675696"/>
<path d="M245.5 119C243.333 141.667 226.8 187 178 187C200.5 184.167 245.5 191.8 245.5 245C251.5 219 273.9 171 315.5 187C292.167 183.167 245.5 164.2 245.5 119Z" stroke="#675696"/>
<path d="M358 241.5C378.647 236.767 386.655 228.115 393 200C393.977 225.649 397.498 237.45 423 241.5C401.05 246.307 395.248 255.732 393 281C389.165 260.544 382.958 251.129 358 241.5Z" fill="#675696" stroke="#675696"/>
<path d="M346 156.784C351.718 155.44 353.935 152.983 355.692 145C355.963 152.283 356.938 155.634 364 156.784C357.922 158.149 356.315 160.825 355.692 168C354.63 162.191 352.912 159.518 346 156.784Z" fill="#B2ABC4" stroke="#B2ABC4"/>
<path d="M203 61.784C208.718 60.44 210.935 57.983 212.692 50C212.963 57.283 213.938 60.634 221 61.784C214.922 63.149 213.315 65.825 212.692 73C211.63 67.191 209.912 64.518 203 61.784Z" fill="#B2ABC4" stroke="#B2ABC4"/>
<path d="M379 -0.506199C388.847 -2.8433 392.666 -7.1161 395.692 -21C396.158 -8.3337 397.838 -2.5062 410 -0.506199C399.532 1.8675 396.764 6.5218 395.692 19C393.863 8.8982 390.903 4.2488 379 -0.506199Z" fill="#B2ABC4" stroke="#B2ABC4"/>
<path d="M448 66.494C457.847 64.157 461.666 59.884 464.692 46C465.158 58.666 466.838 64.494 479 66.494C468.532 68.867 465.764 73.522 464.692 86C462.863 75.898 459.903 71.249 448 66.494Z" fill="#B2ABC4" stroke="#B2ABC4"/>
<g clip-path="url(#clip3_108_9650)">
<path d="M322.917 529.929C322.917 529.929 340.286 531.949 341.498 538.814C342.71 545.68 353.615 596.162 353.615 596.162L352.808 620.394L322.917 529.929V529.929Z" fill="#089379"/>
<path d="M530.937 531.545C530.937 531.545 549.921 562.642 543.862 573.142C537.804 583.643 525.686 588.085 525.686 588.085L526.494 639.376C526.494 639.376 516.8 649.068 508.317 643.818C499.835 638.568 505.894 541.641 505.894 541.641L530.937 531.545Z" fill="#089379"/>
<path d="M576.176 529.929C576.176 529.929 601.623 532.756 600.815 536.391C600.411 540.43 604.046 572.335 600.411 575.969C596.372 580.008 601.623 583.643 601.623 583.643C601.623 583.643 603.238 636.952 601.219 639.78C598.795 642.607 585.466 641.799 585.466 641.799L576.176 529.929V529.929Z" fill="#089379"/>
<path d="M392.392 529.929C392.392 529.929 441.67 526.294 442.882 548.103C444.094 570.315 455 581.623 451.768 595.758C448.133 609.894 444.094 607.47 444.094 607.47C444.094 607.47 448.537 623.625 448.537 632.914C448.537 642.203 444.498 643.01 442.074 643.414C439.651 643.818 417.839 641.799 417.839 641.799L392.392 529.929V529.929Z" fill="#089379"/>
<path d="M574.964 581.22C570.117 580.816 564.866 580.816 560.423 580.816H553.152C550.729 580.816 548.305 580.008 545.882 578.796C541.843 575.969 539.419 571.931 539.015 567.084C539.015 561.834 538.611 556.988 538.611 551.738V542.045C538.611 540.026 539.015 535.179 542.651 531.948C545.074 529.929 547.902 528.718 552.345 528.718H580.619C583.447 528.718 587.486 529.121 590.717 531.948C593.948 535.179 593.948 540.026 593.948 541.641V568.7C593.948 569.911 593.545 571.123 593.141 572.335C592.737 573.142 592.333 574.354 591.525 575.565C590.717 576.777 589.505 577.989 587.486 578.796C587.216 578.796 586.947 578.931 586.678 579.2C584.658 580.412 582.235 581.22 579.811 581.22H574.964Z" fill="#012731"/>
<path d="M553.96 644.626C551.941 644.626 546.286 644.626 542.65 640.587C539.419 637.356 539.015 632.51 539.015 629.279V582.835C539.015 580.412 540.227 577.989 542.246 576.373L542.65 575.969C543.054 575.565 543.862 575.162 544.266 574.758C546.69 573.142 549.113 571.931 551.941 571.931C554.768 571.931 557.192 571.527 560.019 571.527C565.27 571.527 570.521 571.931 575.368 571.931H577.388C578.195 571.931 579.003 571.931 579.407 572.335H579.811C581.831 573.142 583.85 573.95 585.87 575.162C590.313 577.585 592.737 582.027 593.14 587.277C593.544 599.797 593.544 612.721 593.14 625.24V628.875C593.14 630.087 592.737 631.298 592.737 632.51V633.318C591.929 636.549 590.313 639.376 587.89 640.991C585.466 642.606 582.639 643.818 579.407 643.818H553.96V644.626V644.626Z" fill="#012731"/>
<path d="M317.667 645.433C314.031 645.433 311.204 644.626 309.184 643.01C306.761 640.991 305.145 638.164 304.337 634.529C303.933 633.318 303.933 632.106 303.529 630.894V631.702C303.529 632.51 303.125 633.318 303.125 634.125C302.721 635.337 302.318 636.548 301.51 637.76C299.49 642.606 295.047 645.03 289.392 645.03H262.329C257.886 645.03 255.059 643.414 253.443 641.799C250.616 639.375 249 636.145 249 632.106C249 630.087 249 628.067 249.404 626.048C249.404 624.029 249.808 621.606 250.212 619.586C252.231 609.49 254.251 599.393 256.674 589.701C258.694 579.604 261.118 569.911 263.137 559.815C263.945 556.584 264.753 553.757 265.561 550.93C266.369 548.507 267.176 545.68 267.984 543.256C269.6 538.41 272.023 535.179 275.255 532.756C278.486 530.737 282.121 529.525 286.969 529.525H318.07C322.11 529.525 325.341 530.333 327.765 532.352C330.188 533.968 332.208 536.391 333.419 539.218C334.227 540.429 334.631 541.641 335.035 543.256C335.035 544.064 335.439 544.872 335.439 545.68C337.055 552.141 338.67 558.199 339.882 564.661C341.498 570.719 342.71 577.181 344.325 583.239C345.537 589.297 347.153 595.355 348.365 601.412C349.576 607.47 350.788 613.124 352 619.182C352.404 620.394 352.404 621.606 352.808 623.221C353.212 624.433 353.615 625.644 354.019 626.856C354.423 627.663 354.423 628.875 354.423 629.683V632.51C354.827 639.375 349.98 644.222 343.114 644.626H341.498C337.459 644.626 333.419 644.626 329.784 645.03C325.745 645.03 321.706 645.433 317.667 645.433Z" fill="#012731"/>
<path d="M416.223 645.433H404.913C401.682 645.433 398.855 644.626 396.431 643.414C395.623 643.01 394.815 642.606 394.008 641.799C391.988 643.414 389.564 644.626 385.525 645.029C381.89 645.433 378.659 645.433 375.023 645.433H373.408C370.58 645.433 367.349 645.433 364.521 645.029C359.27 645.029 356.039 642.606 354.423 640.587C352 638.164 351.192 634.529 351.192 630.49C351.192 620.394 351.596 610.701 351.596 601.009V545.276C351.596 540.833 352.808 537.198 355.231 534.775C357.655 532.352 361.29 530.737 365.733 530.737C370.176 530.333 375.023 530.333 379.466 530.333C383.909 530.333 388.353 529.929 392.796 529.929H407.337C410.568 529.929 413.8 530.333 417.031 531.544C420.262 532.352 423.09 533.564 425.917 535.179C429.149 537.198 431.572 539.622 433.592 542.045C435.207 544.468 436.823 546.891 438.035 549.314C439.247 552.545 440.458 556.18 441.266 560.219C442.074 564.257 442.478 568.7 442.882 573.142C443.286 577.585 443.286 581.623 442.882 586.066C442.478 590.508 441.67 594.547 440.054 597.778C438.843 600.605 437.227 603.028 435.611 605.451C436.419 606.663 436.823 607.874 437.227 608.682C438.439 611.913 439.247 615.548 439.247 619.182V631.298C439.247 635.337 438.439 638.568 436.823 640.587C435.207 642.606 432.38 645.433 426.321 645.433H416.223V645.433Z" fill="#012731"/>
<path d="M501.047 645.837C494.18 645.837 487.313 645.433 480.85 645.03C479.639 645.03 478.831 645.03 477.619 644.626C476.811 644.626 476.003 644.222 475.196 644.222H474.792C471.964 643.414 469.541 641.799 467.925 640.183C466.309 638.164 465.501 635.337 465.098 632.51V582.027H459.847C458.231 582.027 456.615 582.027 455 581.623H454.596C450.556 581.219 447.325 579.604 445.305 577.181C442.882 574.758 441.67 571.123 441.266 567.084C441.266 563.046 440.862 559.411 440.862 555.372V544.064C440.862 538.814 442.478 535.179 445.709 532.756C448.537 530.333 451.768 529.121 456.211 529.121H487.313C497.411 529.121 507.509 529.121 518.011 529.525H520.839L524.07 529.121H525.686C528.917 529.121 531.744 529.929 534.168 531.948C536.188 533.564 539.015 536.391 539.419 541.641C539.823 543.256 539.823 545.276 539.823 547.295V550.93L539.419 559.007C539.419 561.834 539.015 564.661 539.015 567.488C538.611 570.719 537.803 574.758 534.168 577.585C531.744 579.2 528.917 580.008 524.878 580.008C522.454 580.008 520.435 580.008 518.011 580.412V585.662L518.415 606.663C518.415 613.932 518.819 620.798 518.819 628.067C518.819 634.125 517.203 638.164 514.376 641.395C511.145 644.222 507.105 645.837 501.047 645.837V645.837Z" fill="#012731"/>
<path d="M584.658 541.641C584.658 539.622 584.254 538.006 583.85 537.602C583.042 536.795 581.831 536.795 579.407 536.795H551.537C549.517 536.795 548.305 537.199 547.497 537.602C546.69 538.41 546.286 539.622 546.286 541.641V550.526C546.286 555.776 546.69 561.026 546.69 566.277C546.69 568.296 547.901 570.315 549.517 571.123C550.325 571.527 551.537 571.931 552.748 571.931C561.231 571.527 570.117 571.931 579.003 572.334C580.215 572.334 581.023 571.931 582.235 571.527C582.639 571.527 582.639 571.123 583.042 571.123H583.446C583.446 571.123 583.85 571.123 583.85 570.719C584.254 569.911 584.254 568.7 584.658 568.7C584.658 559.411 584.658 551.334 584.658 541.641V541.641Z" fill="#25B6A0"/>
<path d="M585.062 587.681C585.062 585.662 583.85 583.643 582.235 582.431C580.619 581.623 579.003 580.816 577.388 580.412C568.905 580.008 560.827 579.604 552.345 580.008C551.133 580.008 549.921 580.412 549.113 581.219C548.709 581.623 547.901 582.027 547.498 582.431V628.471C547.498 631.298 547.901 633.318 549.113 634.125C549.921 634.933 551.941 635.337 554.768 635.337H579.811C581.427 635.337 582.639 634.933 583.447 634.529C584.254 633.721 585.062 632.914 585.466 631.298C585.466 630.491 585.87 629.279 585.87 628.471V625.24C585.062 612.721 585.062 600.201 585.062 587.681V587.681Z" fill="#25B6A0"/>
<path d="M297.875 617.567C297.471 617.567 297.067 617.971 297.067 618.375C296.663 620.394 296.663 622.009 296.259 623.625C295.855 625.644 295.855 627.664 295.451 629.683C295.451 630.491 295.047 631.298 295.047 632.106C295.047 632.914 294.643 633.318 294.239 634.125C293.431 636.145 291.816 636.952 289.392 636.952H262.33C260.714 636.952 259.502 636.548 258.29 635.741C257.483 634.933 257.079 633.721 257.079 632.106C257.079 630.087 257.079 628.471 257.483 626.452C257.483 624.836 257.886 622.817 258.29 621.202C260.31 611.105 262.734 601.009 264.753 590.912C266.773 581.219 269.196 571.123 271.216 561.026C272.024 558.199 272.428 555.372 273.639 552.949C274.851 550.526 275.255 547.699 276.467 544.872C277.679 542.045 278.89 540.026 280.506 538.814C282.122 537.602 284.545 537.199 287.777 537.199H308.78C310.8 537.199 316.859 536.795 319.282 536.795C321.302 536.795 322.918 537.199 324.129 538.41C325.341 539.622 326.553 540.833 327.361 542.449C327.765 543.256 328.169 544.064 328.169 544.872C328.169 545.68 328.573 546.487 328.977 547.295C330.592 553.353 332.208 559.815 333.42 565.873C335.035 571.931 336.247 578.392 337.863 584.45C339.075 590.508 340.69 596.566 341.498 602.624C342.71 608.682 343.922 614.336 345.133 620.394C345.537 622.009 345.941 623.221 345.941 624.836C346.345 626.048 346.749 627.663 347.153 628.875C347.153 629.279 347.557 630.087 347.557 630.491V632.106C347.557 634.529 346.345 635.741 344.325 636.145H343.114C339.075 636.145 335.035 636.145 330.996 636.548C326.957 636.548 322.918 636.952 318.878 636.952C316.859 636.952 315.647 636.548 314.839 636.145C314.031 635.337 313.224 634.125 312.82 632.51C312.416 630.491 312.012 628.875 312.012 626.856C311.608 625.24 311.608 623.221 311.204 621.606C311.204 620.798 310.8 619.99 310.8 619.182C310.8 618.375 310.396 617.971 310.396 617.567H297.875V617.567ZM303.126 573.546C302.318 573.546 301.914 575.565 301.51 576.777C300.702 579.604 300.702 581.623 300.702 581.623C299.894 586.066 299.49 590.912 299.086 595.758C299.086 596.162 299.49 596.97 299.894 596.97H305.953C306.357 596.97 307.165 596.566 306.761 595.758C305.953 590.912 305.549 586.066 304.741 581.623C304.741 581.623 304.337 580.008 303.933 577.585C303.933 574.758 303.529 573.546 303.126 573.546Z" fill="#25B6A0"/>
<path d="M424.302 605.047C427.533 606.259 429.553 608.278 430.361 610.701C431.169 613.124 431.573 615.548 431.573 618.375V630.49C431.573 632.51 431.169 634.125 430.361 635.337C429.553 636.548 428.341 636.952 426.322 636.952C419.051 637.356 411.78 637.356 404.51 636.952C402.49 636.952 400.875 636.548 399.663 635.741C398.451 634.933 397.643 633.721 397.643 631.702C397.239 629.279 397.239 626.856 397.643 624.433V617.163C397.643 614.74 397.239 613.124 396.028 612.317C394.816 611.509 393.2 611.105 390.777 611.913C390.777 613.528 390.777 615.144 391.181 616.355C391.181 617.567 391.181 619.182 391.584 620.798V629.683C391.584 631.702 390.777 633.318 389.969 634.125C388.757 635.337 387.545 635.741 385.526 636.145C382.294 636.548 379.063 636.548 375.832 636.548C372.6 636.548 369.369 636.548 365.734 636.145C363.714 636.145 362.098 635.337 361.29 634.529C360.483 633.317 360.079 631.702 360.079 629.683C360.079 619.586 360.483 609.894 360.483 600.201V544.468C360.483 542.045 360.886 540.429 362.098 539.622C362.906 538.41 364.522 538.006 366.945 538.006C371.388 537.602 376.235 537.602 380.679 537.602C385.122 537.602 389.565 537.198 394.008 537.198H407.741C410.569 537.198 412.992 537.602 415.82 538.41C418.243 539.218 420.667 540.026 423.09 541.641C425.11 542.853 427.129 544.468 428.341 546.487C429.553 548.103 430.765 550.122 431.573 552.545C432.784 554.968 433.592 558.199 434.4 561.834C435.208 565.469 435.612 569.507 436.016 573.546C436.42 577.585 436.016 581.623 436.016 585.258C435.612 588.893 435.208 592.124 433.996 594.547C431.573 597.778 428.745 601.412 424.302 605.047V605.047ZM394.412 584.854C397.239 586.47 399.259 586.47 400.875 585.258C402.49 584.046 403.298 582.027 403.702 578.796V572.738C403.702 570.719 403.298 568.7 403.298 566.68C402.49 562.642 400.067 560.622 396.028 561.834C394.816 561.834 394.412 562.238 393.604 562.642C392.796 563.046 392.796 563.853 393.2 565.065C393.604 568.296 393.604 571.527 394.008 574.758C393.604 578.392 394.008 581.623 394.412 584.854V584.854Z" fill="#25B6A0"/>
<path d="M509.529 584.854C509.529 592.124 509.933 598.989 509.933 606.259C509.933 613.124 510.337 620.394 510.337 627.663C510.337 631.298 509.529 633.721 508.317 634.933C507.106 636.145 504.278 636.952 501.047 636.952C494.18 636.952 487.717 636.548 480.851 636.145H478.831C478.023 636.145 477.619 635.741 476.812 635.741C475.6 635.337 474.388 634.933 473.984 634.125C473.58 633.318 473.176 632.51 473.176 631.298V573.546H455.808C453.788 573.142 452.172 572.334 450.961 571.527C449.749 570.315 449.345 568.7 448.941 566.277C448.941 562.642 448.537 559.007 448.537 555.372V544.064C448.537 541.237 449.345 539.622 450.557 538.41C451.768 537.199 453.788 536.795 456.212 536.795H486.91C497.008 536.795 507.106 536.795 517.608 537.199H520.839C522.051 537.199 523.262 537.199 524.07 536.795C526.09 536.795 527.706 536.795 528.917 538.006C530.129 538.814 530.937 540.429 530.937 542.045C531.341 543.256 531.341 544.468 531.341 546.083V550.122C531.341 552.949 531.341 555.372 530.937 558.199C530.937 560.622 530.533 563.45 530.533 565.873C530.129 568.296 529.725 569.507 528.917 570.315C528.11 570.719 526.494 571.123 524.07 571.123C521.647 571.123 519.223 571.123 516.8 571.527C514.376 571.527 511.953 571.931 509.125 571.931V584.854H509.529V584.854Z" fill="#25B6A0"/>
<path d="M321.302 542.045L283.737 542.449C282.526 542.449 281.314 543.257 280.91 544.468C278.89 548.507 276.871 553.353 275.255 558.603C272.024 568.296 270.408 576.777 269.6 584.047C273.235 582.431 277.679 580.008 282.122 575.565C292.22 565.873 289.392 557.392 297.067 552.545C306.357 546.891 318.475 553.757 321.706 548.911C323.322 546.891 322.514 543.66 321.302 542.045V542.045Z" fill="#81CEC5"/>
<path d="M363.713 565.065V545.68C363.713 543.66 365.329 541.641 367.753 541.641C378.658 540.833 408.145 540.429 414.607 542.045C422.282 543.66 433.188 561.43 430.764 572.335C428.341 583.239 425.109 552.141 402.894 550.526C389.968 549.718 375.023 549.314 371.388 559.815C368.157 570.719 365.733 587.277 364.925 585.258C363.713 583.643 364.117 567.892 364.117 565.873L363.713 565.065Z" fill="#81CEC5"/>
<path d="M524.07 542.853C524.07 542.853 458.635 540.429 455.807 541.641C453.384 542.853 450.556 556.988 453.384 562.238C455.807 567.488 467.521 546.487 503.47 554.161C528.513 559.007 528.917 540.833 524.07 542.853V542.853Z" fill="#81CEC5"/>
<path d="M580.215 539.622C580.215 539.622 564.058 536.391 552.748 540.429C550.729 541.237 549.517 542.853 549.517 544.872C549.517 551.738 549.113 567.892 550.729 568.7C552.748 569.911 555.98 548.507 563.25 550.122C578.195 552.949 579.003 548.103 581.023 545.68C583.85 540.833 580.215 539.622 580.215 539.622Z" fill="#81CEC5"/>
<path d="M478.427 575.162C478.427 575.162 476.407 628.067 479.639 630.087C482.87 632.106 489.333 634.125 496.603 633.318C503.874 632.51 510.337 631.702 509.125 629.279C504.682 621.202 492.16 626.048 488.525 614.74C484.486 603.028 486.102 582.027 482.466 578.796C478.427 575.565 478.427 575.162 478.427 575.162V575.162Z" fill="#81CEC5"/>
<path d="M263.137 613.932C263.137 613.932 257.079 630.491 264.753 633.722C264.753 633.722 285.757 634.125 286.161 632.914C286.565 631.702 267.984 629.683 270.812 618.779C273.639 607.874 267.58 601.009 265.965 605.855C263.945 611.509 263.137 613.932 263.137 613.932V613.932Z" fill="#81CEC5"/>
<path d="M549.517 613.125C549.517 613.125 547.902 630.491 552.749 633.318C552.749 633.318 577.792 634.529 578.196 633.318C578.6 632.106 558.404 628.471 558 619.183C557.192 608.278 551.133 599.393 550.325 604.644C549.113 609.086 549.517 613.125 549.517 613.125V613.125Z" fill="#81CEC5"/>
<path d="M363.713 602.22L363.31 629.279C363.31 629.279 363.713 632.914 370.58 632.914C374.619 632.914 379.062 632.106 382.294 631.702C383.506 631.298 383.91 630.087 382.698 629.279C379.466 627.26 371.792 623.625 370.984 619.99C370.176 614.74 368.561 599.797 363.713 602.22V602.22Z" fill="#81CEC5"/>
</g>
<path d="M297.162 484.388H304.314C304.922 484.388 305.354 484.532 305.61 484.82C305.898 485.076 306.042 485.508 306.042 486.116V504.74C306.042 505.764 305.994 506.724 305.898 507.62C305.834 508.484 305.594 509.508 305.178 510.692L302.778 517.22C302.618 517.7 302.378 518.116 302.058 518.468C301.77 518.788 301.37 518.948 300.858 518.948H294.474C293.962 518.948 293.498 518.836 293.082 518.612C292.666 518.388 292.394 518.02 292.266 517.508L290.058 509.684C289.962 509.364 289.834 509.156 289.674 509.06C289.546 508.932 289.386 508.868 289.194 508.868H288.762C288.57 508.868 288.394 508.932 288.234 509.06C288.106 509.156 287.994 509.364 287.898 509.684L285.642 517.508C285.514 517.988 285.274 518.356 284.922 518.612C284.57 518.836 284.138 518.948 283.626 518.948H277.29C276.778 518.948 276.33 518.788 275.946 518.468C275.594 518.148 275.338 517.732 275.178 517.22L272.778 510.596C272.362 509.412 272.106 508.388 272.01 507.524C271.946 506.628 271.914 505.668 271.914 504.644V486.116C271.914 485.508 272.042 485.076 272.298 484.82C272.586 484.532 273.034 484.388 273.642 484.388H281.034C281.642 484.388 282.074 484.532 282.33 484.82C282.618 485.076 282.762 485.508 282.762 486.116V503.78L285.546 497.732C285.802 497.188 286.138 496.804 286.554 496.58C286.97 496.356 287.482 496.244 288.09 496.244H290.106C290.714 496.244 291.226 496.356 291.642 496.58C292.058 496.804 292.394 497.188 292.65 497.732L295.434 503.78V486.116C295.434 485.508 295.562 485.076 295.818 484.82C296.106 484.532 296.554 484.388 297.162 484.388ZM336.237 518.948H313.965C313.357 518.948 312.909 518.82 312.621 518.564C312.365 518.276 312.237 517.828 312.237 517.22V486.116C312.237 485.508 312.365 485.076 312.621 484.82C312.909 484.532 313.357 484.388 313.965 484.388H336.237C336.845 484.388 337.277 484.532 337.533 484.82C337.821 485.076 337.965 485.508 337.965 486.116V491.732C337.965 492.34 337.821 492.788 337.533 493.076C337.277 493.332 336.845 493.46 336.237 493.46H322.989V497.156H332.349C332.957 497.156 333.389 497.3 333.645 497.588C333.933 497.844 334.077 498.276 334.077 498.884V504.02C334.077 504.628 333.933 505.076 333.645 505.364C333.389 505.62 332.957 505.748 332.349 505.748H322.989V509.876H336.237C336.845 509.876 337.277 510.02 337.533 510.308C337.821 510.564 337.965 510.996 337.965 511.604V517.22C337.965 517.828 337.821 518.276 337.533 518.564C337.277 518.82 336.845 518.948 336.237 518.948ZM369.803 518.948H345.371C344.763 518.948 344.315 518.82 344.027 518.564C343.771 518.276 343.643 517.828 343.643 517.22V486.116C343.643 485.508 343.771 485.076 344.027 484.82C344.315 484.532 344.763 484.388 345.371 484.388H352.811C353.419 484.388 353.851 484.532 354.107 484.82C354.395 485.076 354.539 485.508 354.539 486.116V509.876H361.115V502.1C361.115 501.492 361.243 501.06 361.499 500.804C361.787 500.516 362.235 500.372 362.843 500.372H369.803C370.411 500.372 370.843 500.516 371.099 500.804C371.387 501.06 371.531 501.492 371.531 502.1V517.22C371.531 517.828 371.387 518.276 371.099 518.564C370.843 518.82 370.411 518.948 369.803 518.948ZM400.01 518.948H388.298C384.298 518.948 381.322 518.148 379.37 516.548C377.45 514.948 376.49 512.484 376.49 509.156V494.228C376.49 490.9 377.45 488.436 379.37 486.836C381.322 485.204 384.298 484.388 388.298 484.388H400.01C400.618 484.388 401.05 484.532 401.306 484.82C401.594 485.076 401.738 485.508 401.738 486.116V491.924C401.738 492.532 401.594 492.98 401.306 493.268C401.05 493.524 400.618 493.652 400.01 493.652H390.362C389.37 493.652 388.634 493.86 388.154 494.276C387.674 494.66 387.434 495.252 387.434 496.052V507.476C387.434 508.276 387.674 508.868 388.154 509.252C388.634 509.604 389.37 509.78 390.362 509.78H400.01C400.618 509.78 401.05 509.924 401.306 510.212C401.594 510.468 401.738 510.9 401.738 511.508V517.22C401.738 517.828 401.594 518.276 401.306 518.564C401.05 518.82 400.618 518.948 400.01 518.948ZM436.204 509.876C436.204 511.348 435.98 512.692 435.532 513.908C435.116 515.092 434.348 516.116 433.228 516.98C432.14 517.812 430.62 518.468 428.668 518.948C426.748 519.428 424.3 519.668 421.324 519.668C418.348 519.668 415.884 519.428 413.932 518.948C411.98 518.468 410.444 517.812 409.324 516.98C408.236 516.116 407.468 515.092 407.02 513.908C406.604 512.692 406.396 511.348 406.396 509.876V493.508C406.396 492.036 406.604 490.708 407.02 489.524C407.468 488.308 408.236 487.268 409.324 486.404C410.444 485.54 411.98 484.868 413.932 484.388C415.884 483.908 418.348 483.668 421.324 483.668C424.3 483.668 426.748 483.908 428.668 484.388C430.62 484.868 432.14 485.54 433.228 486.404C434.348 487.268 435.116 488.308 435.532 489.524C435.98 490.708 436.204 492.036 436.204 493.508V509.876ZM417.292 508.148C417.292 508.788 417.532 509.332 418.012 509.78C418.492 510.196 419.596 510.404 421.324 510.404C423.052 510.404 424.156 510.196 424.636 509.78C425.116 509.332 425.356 508.788 425.356 508.148V495.236C425.356 494.628 425.116 494.116 424.636 493.7C424.156 493.252 423.052 493.028 421.324 493.028C419.596 493.028 418.492 493.252 418.012 493.7C417.532 494.116 417.292 494.628 417.292 495.236V508.148ZM451.195 518.948H444.043C443.435 518.948 442.987 518.82 442.699 518.564C442.443 518.276 442.315 517.828 442.315 517.22V486.116C442.315 485.508 442.443 485.076 442.699 484.82C442.987 484.532 443.435 484.388 444.043 484.388H451.771C452.283 484.388 452.699 484.5 453.019 484.724C453.371 484.948 453.691 485.316 453.979 485.828L458.299 493.652C458.459 493.94 458.587 494.148 458.683 494.276C458.811 494.404 458.971 494.468 459.163 494.468H459.595C459.787 494.468 459.931 494.404 460.027 494.276C460.155 494.148 460.299 493.94 460.459 493.652L464.731 485.828C465.019 485.316 465.323 484.948 465.643 484.724C465.995 484.5 466.427 484.388 466.939 484.388H474.715C475.323 484.388 475.755 484.532 476.011 484.82C476.299 485.076 476.443 485.508 476.443 486.116V517.22C476.443 517.828 476.299 518.276 476.011 518.564C475.755 518.82 475.323 518.948 474.715 518.948H467.323C466.715 518.948 466.267 518.82 465.979 518.564C465.723 518.276 465.595 517.828 465.595 517.22V500.324L462.763 505.556C462.475 506.1 462.123 506.5 461.707 506.756C461.323 506.98 460.827 507.092 460.219 507.092H458.299C457.691 507.092 457.179 506.98 456.763 506.756C456.379 506.5 456.043 506.1 455.755 505.556L452.923 500.324V517.22C452.923 517.828 452.779 518.276 452.491 518.564C452.235 518.82 451.803 518.948 451.195 518.948ZM507.049 518.948H484.777C484.169 518.948 483.721 518.82 483.433 518.564C483.177 518.276 483.049 517.828 483.049 517.22V486.116C483.049 485.508 483.177 485.076 483.433 484.82C483.721 484.532 484.169 484.388 484.777 484.388H507.049C507.657 484.388 508.089 484.532 508.345 484.82C508.633 485.076 508.777 485.508 508.777 486.116V491.732C508.777 492.34 508.633 492.788 508.345 493.076C508.089 493.332 507.657 493.46 507.049 493.46H493.801V497.156H503.161C503.769 497.156 504.201 497.3 504.457 497.588C504.745 497.844 504.889 498.276 504.889 498.884V504.02C504.889 504.628 504.745 505.076 504.457 505.364C504.201 505.62 503.769 505.748 503.161 505.748H493.801V509.876H507.049C507.657 509.876 508.089 510.02 508.345 510.308C508.633 510.564 508.777 510.996 508.777 511.604V517.22C508.777 517.828 508.633 518.276 508.345 518.564C508.089 518.82 507.657 518.948 507.049 518.948ZM541.088 518.948H533.312C532.704 518.948 532.256 518.82 531.968 518.564C531.712 518.276 531.584 517.828 531.584 517.22V493.652H524.528C523.92 493.652 523.472 493.524 523.184 493.268C522.928 492.98 522.8 492.532 522.8 491.924V486.116C522.8 485.508 522.928 485.076 523.184 484.82C523.472 484.532 523.92 484.388 524.528 484.388H549.872C550.48 484.388 550.912 484.532 551.168 484.82C551.456 485.076 551.6 485.508 551.6 486.116V491.924C551.6 492.532 551.456 492.98 551.168 493.268C550.912 493.524 550.48 493.652 549.872 493.652H542.816V517.22C542.816 517.828 542.672 518.276 542.384 518.564C542.128 518.82 541.696 518.948 541.088 518.948ZM585.314 509.876C585.314 511.348 585.09 512.692 584.642 513.908C584.226 515.092 583.458 516.116 582.338 516.98C581.25 517.812 579.73 518.468 577.778 518.948C575.858 519.428 573.41 519.668 570.434 519.668C567.458 519.668 564.994 519.428 563.042 518.948C561.09 518.468 559.554 517.812 558.434 516.98C557.346 516.116 556.578 515.092 556.13 513.908C555.714 512.692 555.506 511.348 555.506 509.876V493.508C555.506 492.036 555.714 490.708 556.13 489.524C556.578 488.308 557.346 487.268 558.434 486.404C559.554 485.54 561.09 484.868 563.042 484.388C564.994 483.908 567.458 483.668 570.434 483.668C573.41 483.668 575.858 483.908 577.778 484.388C579.73 484.868 581.25 485.54 582.338 486.404C583.458 487.268 584.226 488.308 584.642 489.524C585.09 490.708 585.314 492.036 585.314 493.508V509.876ZM566.402 508.148C566.402 508.788 566.642 509.332 567.122 509.78C567.602 510.196 568.706 510.404 570.434 510.404C572.162 510.404 573.266 510.196 573.746 509.78C574.226 509.332 574.466 508.788 574.466 508.148V495.236C574.466 494.628 574.226 494.116 573.746 493.7C573.266 493.252 572.162 493.028 570.434 493.028C568.706 493.028 567.602 493.252 567.122 493.7C566.642 494.116 566.402 494.628 566.402 495.236V508.148Z" fill="white"/>
<path d="M141.776 1176.01C99.702 1181.04 85.032 1222.24 83 1243.5C83 1205.52 50.056 1186.06 25.688 1178.54C21.676 1178.19 17.448 1177.21 13 1175.5C16.729 1176.11 21.053 1177.11 25.688 1178.54C59.202 1181.49 77.641 1140.72 83 1117.5C83 1164.47 118.075 1175.92 141.776 1176.01C144.562 1175.68 147.469 1175.5 150.5 1175.5C147.864 1175.83 144.92 1176.02 141.776 1176.01Z" fill="#675696"/>
<path d="M83 1243.5C85.167 1220.83 101.7 1175.5 150.5 1175.5C128 1178.33 83 1170.7 83 1117.5C77 1143.5 54.6 1191.5 13 1175.5C36.333 1179.33 83 1198.3 83 1243.5Z" stroke="#675696"/>
<path d="M211.276 1055.51C169.202 1060.54 154.532 1101.74 152.5 1123C152.5 1085.02 119.556 1065.56 95.188 1058.04C91.176 1057.69 86.948 1056.71 82.5 1055C86.229 1055.61 90.553 1056.61 95.188 1058.04C128.702 1060.99 147.141 1020.22 152.5 997C152.5 1043.97 187.575 1055.42 211.276 1055.51C214.062 1055.17 216.969 1055 220 1055C217.365 1055.33 214.42 1055.52 211.276 1055.51Z" fill="#675696"/>
<path d="M152.5 1123C154.667 1100.33 171.2 1055 220 1055C197.5 1057.83 152.5 1050.2 152.5 997C146.5 1023 124.1 1071 82.5 1055C105.833 1058.83 152.5 1077.8 152.5 1123Z" stroke="#675696"/>
<path d="M40 1000.5C19.353 1005.23 11.345 1013.88 5 1042C4.023 1016.35 0.502002 1004.55 -25 1000.5C-3.05 995.693 2.752 986.268 5.00001 961C8.835 981.456 15.042 990.871 40 1000.5Z" fill="#675696" stroke="#675696"/>
<path d="M52 1085.22C46.282 1086.56 44.065 1089.02 42.308 1097C42.037 1089.72 41.062 1086.37 34 1085.22C40.078 1083.85 41.685 1081.17 42.308 1074C43.37 1079.81 45.088 1082.48 52 1085.22Z" fill="#B2ABC4" stroke="#B2ABC4"/>
<path d="M195 1180.22C189.282 1181.56 187.065 1184.02 185.308 1192C185.037 1184.72 184.062 1181.37 177 1180.22C183.078 1178.85 184.685 1176.17 185.308 1169C186.37 1174.81 188.088 1177.48 195 1180.22Z" fill="#B2ABC4" stroke="#B2ABC4"/>
</g>
<defs>
<filter id="filter0_f_108_9650" x="45" y="255" width="760" height="729" filterUnits="userSpaceOnUse" color-interpolation-filters="sRGB">
<feFlood flood-opacity="0" result="BackgroundImageFix"/>
<feBlend mode="normal" in="SourceGraphic" in2="BackgroundImageFix" result="shape"/>
<feGaussianBlur stdDeviation="75" result="effect1_foregroundBlur_108_9650"/>
</filter>
<clipPath id="clip0_108_9650">
<rect width="1194" height="834" fill="white" transform="translate(11.1265 1201.55) rotate(-90.4906)"/>
</clipPath>
<clipPath id="clip1_108_9650">
<rect width="211.9" height="301.22" fill="white" transform="translate(502 1224.9) rotate(-90)"/>
</clipPath>
<clipPath id="clip2_108_9650">
<rect width="251.51" height="270.75" fill="white" transform="translate(-100 262.275) rotate(-31.1964)"/>
</clipPath>
<clipPath id="clip3_108_9650">
<rect width="359.086" height="275.837" fill="white" transform="translate(249 370)"/>
</clipPath>
</defs>
</svg>