<svg width="73" height="73" viewBox="0 0 73 73" fill="none" xmlns="http://www.w3.org/2000/svg">
<path d="M7.00693 63.622C7.00911 63.7778 7.04196 63.9316 7.1036 64.0747C7.16524 64.2178 7.25446 64.3473 7.36617 64.4559C7.47788 64.5645 7.60989 64.65 7.75466 64.7076C7.89943 64.7652 8.05413 64.7937 8.20991 64.7915H63.5789C63.7348 64.7939 63.8897 64.7656 64.0346 64.7081C64.1796 64.6506 64.3117 64.5651 64.4236 64.4565C64.5355 64.3478 64.6248 64.2182 64.6866 64.075C64.7483 63.9318 64.7812 63.7779 64.7834 63.622V62.2258C64.8108 61.8046 64.867 59.7058 63.4831 57.3835C62.6101 55.919 61.3433 54.6551 59.7175 53.624C57.7511 52.3769 55.2493 51.4751 52.2228 50.9321C50.6865 50.7159 49.1626 50.4195 47.6573 50.044C43.6545 49.022 43.3047 48.1171 43.3016 48.108C43.2785 48.0186 43.2448 47.9323 43.2012 47.8509C43.1678 47.6836 43.0872 47.0479 43.2423 45.3461C43.6347 41.0224 45.954 38.4674 47.817 36.4143C48.404 35.7679 48.9591 35.155 49.3865 34.5558C51.2312 31.9704 51.4016 29.0276 51.4092 28.8451C51.4161 28.5217 51.3715 28.1993 51.2769 27.89C51.0944 27.3273 50.7552 26.9775 50.5058 26.719C50.4468 26.6598 50.3895 26.5989 50.334 26.5365C50.3157 26.5152 50.267 26.4574 50.3111 26.1669C50.4603 25.2311 50.5633 24.2886 50.6199 23.3427C50.705 21.8188 50.7704 19.5406 50.3765 17.3217C50.3187 16.8979 50.2313 16.4787 50.115 16.067C49.6998 14.5401 49.0336 13.2352 48.1075 12.1585C47.9478 11.9836 44.0727 7.90017 32.8231 7.06371C31.2673 6.94812 29.7297 7.01048 28.215 7.08804C27.767 7.098 27.3212 7.15303 26.8842 7.25229C25.7223 7.5519 25.4121 8.28798 25.3315 8.70013C25.1961 9.3845 25.4333 9.91375 25.59 10.2666C25.6128 10.3168 25.6417 10.3791 25.5915 10.5434C25.3315 10.9479 24.9193 11.3129 24.5011 11.6581C24.3794 11.76 21.5598 14.1934 21.4047 17.3704C20.9864 19.787 21.0169 23.5511 21.5111 26.1532C21.5415 26.2977 21.5826 26.5106 21.5142 26.6551C20.9819 27.1311 20.3796 27.671 20.3811 28.9029C20.3872 29.0276 20.5591 31.9689 22.4039 34.5558C22.8297 35.155 23.3848 35.7664 23.9703 36.4128L23.9734 36.4143C25.8364 38.4674 28.1556 41.0224 28.548 45.3446C28.7016 47.0479 28.621 47.6821 28.5891 47.8509C28.5449 47.9322 28.5107 48.0185 28.4872 48.108C28.4857 48.1171 28.1374 49.0189 24.1528 50.0394C21.8533 50.628 19.5903 50.9291 19.5219 50.9367C16.5806 51.434 14.094 52.3146 12.1306 53.5541C10.5109 54.5776 9.24104 55.846 8.35895 57.3212C6.94762 59.6785 6.98564 61.8259 7.00541 62.2182V63.622H7.00693Z" stroke="white" stroke-width="4" stroke-linejoin="round"/>
</svg>
