<svg width="73" height="73" viewBox="0 0 73 73" fill="none" xmlns="http://www.w3.org/2000/svg">
<path d="M36 36C32.8375 36 30.25 33.57 30.25 30.6C30.25 27.63 32.8375 25.2 36 25.2C39.1625 25.2 41.75 27.63 41.75 30.6C41.75 33.57 39.1625 36 36 36ZM53.25 31.14C53.25 21.339 45.6312 14.4 36 14.4C26.3688 14.4 18.75 21.339 18.75 31.14C18.75 37.458 24.3562 45.828 36 55.818C47.6438 45.828 53.25 37.458 53.25 31.14ZM36 9C48.075 9 59 17.694 59 31.14C59 40.104 51.3237 50.715 36 63C20.6763 50.715 13 40.104 13 31.14C13 17.694 23.925 9 36 9Z" fill="white"/>
</svg>
